<svg width="895" height="284" viewBox="0 0 895 284" fill="none" xmlns="http://www.w3.org/2000/svg">
<g clip-path="url(#clip0_227_2)">
<path fill-rule="evenodd" clip-rule="evenodd" d="M795.036 238.35C801.179 247.063 806.811 254.243 811.93 259.89C817.05 265.536 821.828 269.649 826.35 272.367C830.788 275.086 835.224 276.411 839.747 276.411C843.587 276.411 848.023 275.853 853.058 274.807C858.092 273.762 863.212 272.367 868.331 270.694C873.451 268.952 878.314 267.139 882.836 265.048C887.444 263.027 891.284 261.005 894.27 259.053L891.881 253.756C887.103 255.498 882.41 256.962 877.717 258.008C873.109 259.123 868.587 259.681 864.235 259.681C862.102 259.681 859.884 259.472 857.751 259.123C855.617 258.705 853.314 257.938 850.839 256.683C848.365 255.498 845.634 253.686 842.733 251.316C839.832 248.876 836.59 245.669 832.921 241.626C829.337 237.583 825.241 232.564 820.804 226.639C816.367 220.644 811.333 213.534 805.787 205.099C815.173 201.405 823.706 197.292 831.47 192.901C839.15 188.509 845.719 183.908 851.266 178.959C856.727 174.079 860.993 168.991 863.979 163.693C866.966 158.395 868.502 152.888 868.502 147.242C868.502 143.617 867.819 140.341 866.283 137.413C864.833 134.485 862.785 131.976 860.225 129.954C857.58 127.863 854.508 126.26 850.925 125.144C847.341 124.029 843.416 123.472 839.15 123.472C832.409 123.472 825.753 124.657 819.098 127.166C812.528 129.676 806.214 133.091 799.985 137.413C793.841 141.805 787.954 146.963 782.237 153.028C776.605 159.022 771.315 165.575 766.366 172.685C761.503 179.795 756.98 187.324 752.884 195.201C748.789 203.148 745.29 211.094 742.304 219.25L741.536 219.111C742.39 209.491 743.157 200.568 743.84 192.134C744.523 183.769 745.205 175.683 745.888 167.875C746.57 159.998 747.253 152.331 747.936 144.732C748.618 137.134 749.386 129.397 750.24 121.45C750.263 121.203 750.287 120.956 750.311 120.709C741.339 123.891 732.205 127.119 722.891 130.379C722.524 135.855 722.166 141.311 721.826 146.754C721.058 158.953 720.29 171.012 719.437 182.793C718.669 194.643 717.901 206.006 717.218 216.88C716.535 227.755 715.853 238.071 715.17 247.761C714.573 257.45 714.061 266.303 713.549 274.389L715.512 274.459L740.768 271.81C742.901 259.193 745.802 247.342 749.386 236.259C752.97 225.175 756.98 214.998 761.502 205.727C766.025 196.456 770.888 188.23 776.179 180.911C781.383 173.661 786.759 167.457 792.305 162.438C797.852 157.419 803.483 153.585 809.115 150.936C814.661 148.287 820.122 146.963 825.412 146.963C827.63 146.963 829.764 147.242 831.726 147.869C833.689 148.427 835.395 149.333 836.846 150.448C838.296 151.564 839.405 152.958 840.344 154.561C841.197 156.164 841.624 157.907 841.624 159.789C841.624 164.32 840.003 168.782 836.76 173.173C833.518 177.495 828.91 181.677 822.938 185.651C816.965 189.555 809.883 193.319 801.606 196.734C793.415 200.22 784.285 203.357 774.302 206.075L773.79 207.26C781.725 219.32 788.807 229.706 795.036 238.35Z" fill="#918E85"/>
<path fill-rule="evenodd" clip-rule="evenodd" d="M672.251 168.851C674.726 168.015 676.944 166.9 678.821 165.366C680.698 163.833 682.149 162.02 683.173 159.859C684.282 157.698 684.794 155.258 684.794 152.47C684.794 149.478 684.181 146.687 683.011 144.096C673.95 147.148 664.717 150.21 655.297 153.269C655.393 154.005 655.442 154.76 655.442 155.537C655.442 159.371 654.247 163.205 651.858 166.97L652.37 168.085C654.333 168.712 656.21 169.27 658.172 169.549C660.135 169.828 662.097 170.037 663.889 170.037C666.876 170.037 669.691 169.618 672.251 168.851Z" fill="#918E85"/>
<path fill-rule="evenodd" clip-rule="evenodd" d="M553.306 244.066C555.866 248.806 559.023 253.197 562.863 257.24C566.617 261.283 571.054 264.839 576.003 267.766C581.037 270.764 586.583 273.064 592.813 274.737C598.956 276.41 605.697 277.247 613.035 277.247C626.516 277.247 638.974 274.598 650.237 269.23C661.585 263.932 671.312 255.916 679.419 245.251L679.674 244.832C679.76 244.763 679.76 244.623 679.76 244.344C679.76 243.926 679.504 243.508 678.992 243.02C678.48 242.532 677.968 242.044 677.286 241.556C676.603 241.138 675.835 240.65 675.067 240.301C674.299 239.953 673.616 239.674 673.19 239.465C665.852 246.645 658.258 251.873 650.493 255.079C642.643 258.356 634.964 259.959 627.37 259.959C620.202 259.959 613.461 258.565 607.147 255.777C600.833 252.988 595.287 249.085 590.509 243.996C585.816 238.907 581.976 232.773 579.245 225.593C576.43 218.413 575.065 210.467 575.065 201.683C575.065 196.734 575.406 191.715 576.259 186.626C576.817 183.255 577.557 179.943 578.503 176.672C569.49 179.227 560.313 181.757 550.965 184.256C550.045 186.778 549.236 189.333 548.528 191.924C546.651 199.104 545.627 206.284 545.627 213.394C545.627 218.692 546.31 223.99 547.59 229.148C548.869 234.376 550.832 239.326 553.306 244.066Z" fill="#918E85"/>
<path fill-rule="evenodd" clip-rule="evenodd" d="M465.932 240.372C465.932 246.297 466.871 251.456 468.663 255.987C470.455 260.448 473.1 264.212 476.427 267.14C479.755 270.137 483.68 272.368 488.288 273.832C492.895 275.365 497.844 276.062 503.305 276.132C510.558 276.062 517.47 274.877 524.039 272.507C530.609 270.137 536.668 266.652 542.299 262.121L538.63 257.729C530.78 261.563 523.613 263.515 517.128 263.515C509.876 263.515 504.073 261.075 499.636 256.126C495.114 251.177 492.895 243.857 492.895 234.028C492.895 227.824 493.151 221.62 493.578 215.347C494.056 209.489 494.534 203.813 495.082 198.264C485.505 200.504 475.757 202.703 465.829 204.854C465.129 208.362 464.071 211.822 462.69 215.207C460.813 219.808 458.509 224.13 455.693 228.312C452.792 232.495 449.635 236.259 446.137 239.814C442.553 243.3 438.884 246.297 434.959 248.807C431.119 251.316 427.194 253.338 423.184 254.732C419.173 256.196 415.334 256.893 411.579 256.893C408.252 256.893 405.351 256.405 402.961 255.289C400.572 254.244 398.61 252.85 397.074 250.967C395.538 249.155 394.429 246.994 393.746 244.624C393.064 242.184 392.637 239.675 392.637 236.956C392.637 232.286 393.661 228.173 395.538 224.618C396.923 222.061 398.646 219.782 400.71 217.731C390.35 219.587 379.807 221.385 369.076 223.12C367.771 224.806 366.608 226.56 365.588 228.382C362.943 233.331 361.578 238.769 361.578 244.763C361.578 249.364 362.517 253.686 364.394 257.59C366.271 261.493 368.831 264.839 372.244 267.697C375.572 270.555 379.668 272.856 384.446 274.459C389.139 276.062 394.429 276.899 400.146 276.899C407.143 276.899 413.883 275.505 420.197 272.786C426.597 269.998 432.57 266.443 438.201 261.981C443.833 257.52 449.038 252.431 453.731 246.715C458.424 241.069 462.605 235.283 466.188 229.428H466.956C466.529 231.38 466.188 233.262 466.103 235.074C466.017 236.817 465.932 238.559 465.932 240.372Z" fill="#918E85"/>
<path fill-rule="evenodd" clip-rule="evenodd" d="M278.305 248.386C278.647 255.218 279.585 260.724 280.95 264.907C282.315 269.159 284.278 272.157 286.923 274.039C289.568 275.921 293.067 276.827 297.589 276.827C301.087 276.827 305.268 276.339 310.047 275.294C314.825 274.248 319.688 272.854 324.723 271.111C329.757 269.438 334.535 267.556 339.058 265.534C343.58 263.513 347.334 261.491 350.321 259.47L347.931 254.172C343.239 255.984 338.546 257.309 333.938 258.354C329.245 259.33 324.979 259.818 320.968 259.818C318.835 259.818 316.958 259.609 315.337 259.261C313.801 258.843 312.35 258.145 311.241 257.03C310.047 255.984 309.108 254.381 308.255 252.36C307.487 250.338 306.889 247.619 306.378 244.273C305.969 241.069 305.639 237.224 305.461 232.618C296.376 233.792 287.164 234.919 277.822 235.996C277.916 240.57 278.072 244.696 278.305 248.386Z" fill="#918E85"/>
<path fill-rule="evenodd" clip-rule="evenodd" d="M132.477 276.128C139.081 266.537 145.488 257.084 151.683 247.755C146.148 248.068 140.574 248.364 134.959 248.643C134.559 249.277 134.158 249.911 133.757 250.545H132.989C132.866 249.948 132.743 249.352 132.62 248.758C122.812 249.235 112.881 249.659 102.825 250.027C104.944 258.774 107.121 267.823 109.354 277.173L111.999 277.522L132.477 276.128Z" fill="#918E85"/>
<path fill-rule="evenodd" clip-rule="evenodd" d="M132.477 280.578C139.081 270.987 145.488 261.534 151.683 252.205C146.148 252.518 140.574 252.815 134.959 253.094C134.559 253.727 134.158 254.361 133.757 254.995H132.989C132.866 254.398 132.743 253.802 132.62 253.208C122.812 253.686 112.881 254.109 102.825 254.477C104.944 263.224 107.121 272.273 109.354 281.623L111.999 281.972L132.477 280.578Z" fill="white"/>
<path fill-rule="evenodd" clip-rule="evenodd" d="M101.617 249.499C111.262 248.452 121.104 247.293 131.123 246.031C126.666 224.809 122.348 205.622 118.228 188.424C113.449 168.766 109.012 151.409 104.831 136.143C100.651 120.947 96.64 107.772 92.971 96.5488C89.387 85.3258 85.974 75.7758 82.903 67.8288C81.111 63.2978 79.489 59.4638 77.954 56.1878C76.418 52.9818 74.626 50.3328 72.663 48.2408C70.701 46.1498 68.397 44.6158 65.667 43.6408C62.851 42.6648 59.352 42.1768 55.172 42.1768C49.1985 42.1768 41.9459 42.8738 33.2428 44.3378C24.6248 45.7318 13.7883 47.8228 0.904114 50.4718L2.26912 59.5338C6.53572 58.9758 10.29 58.5578 13.6175 58.2788C16.9453 57.9308 20.0171 57.7918 22.7474 57.7918C27.0992 57.7918 30.7684 58.2098 33.8399 58.9068C36.9117 59.6728 39.5569 60.8588 41.7753 62.5318C43.9938 64.1348 46.0416 66.2257 47.7481 68.8047C49.54 71.4537 51.2464 74.5208 52.8678 78.1458C59.438 92.2268 67.288 116.137 76.418 149.945C83.596 176.776 92.009 209.972 101.617 249.499Z" fill="white"/>
<path fill-rule="evenodd" clip-rule="evenodd" d="M177.274 183.057C170.789 194.489 163.792 206.339 156.454 218.398C151.075 227.188 145.651 236.014 140.117 244.876C146.059 244.099 152.061 243.287 158.117 242.442C160.498 238.801 162.845 235.178 165.157 231.573C175.482 215.61 184.953 200.344 193.656 185.775C202.274 171.276 210.124 157.613 217.035 144.787C224.032 132.03 229.92 120.389 234.783 110.003C239.562 99.5474 243.316 90.4854 245.876 82.7474C248.436 74.9404 249.716 68.8754 249.716 64.4144C249.716 59.4644 248.692 55.3524 246.729 52.0064C244.681 48.6604 242.036 46.0114 238.794 43.9904C235.466 42.0384 231.797 40.6434 227.701 39.8074C223.606 38.9014 219.339 38.4824 215.158 38.4824C213.367 38.4824 211.66 38.5524 210.039 38.6924C208.332 38.8314 206.711 39.0404 205.09 39.2494L204.151 41.0624C215.67 49.2174 221.473 60.5104 221.473 74.8704C221.473 80.5164 220.449 87.1394 218.23 94.8064C216.097 102.474 213.025 110.909 209.1 120.18C205.175 129.451 200.568 139.35 195.107 149.946C189.731 160.541 183.758 171.555 177.274 183.057Z" fill="white"/>
<path fill-rule="evenodd" clip-rule="evenodd" d="M284.614 130.148C284.017 141.231 283.334 151.897 282.737 162.283C282.225 172.6 281.713 182.15 281.201 190.863C280.774 199.577 280.433 207.245 280.177 213.797C280.048 217.102 279.94 220.016 279.866 222.55C288.911 220.89 298.007 219.187 307.144 217.443C307.181 207.465 307.436 197.072 307.908 186.263C308.42 174.552 309.102 162.632 310.041 150.503C310.894 138.304 312.004 125.965 313.284 113.488C314.478 100.94 315.843 88.463 317.294 76.055C318.83 63.577 320.366 51.308 321.987 39.179C323.608 27.05 325.229 15.13 326.936 3.55802C321.39 1.39702 316.185 0.282227 311.15 0.282227C309.017 0.282227 306.799 0.491421 304.751 0.839821C302.618 1.18802 300.655 1.67602 298.949 2.44302C297.242 3.14002 295.877 4.04603 294.768 5.30103C293.659 6.48603 293.147 7.88002 293.061 9.48402C292.464 16.663 291.781 24.889 291.184 34.23C290.501 43.571 289.733 53.469 289.051 63.995C288.283 74.521 287.515 85.396 286.747 96.688C285.979 107.911 285.297 119.064 284.614 130.148Z" fill="white"/>
<path fill-rule="evenodd" clip-rule="evenodd" d="M313.284 262.314C312.089 261.268 311.15 259.665 310.297 257.644C309.529 255.622 308.932 252.904 308.42 249.558C308.011 246.353 307.681 242.508 307.504 237.902C298.419 239.076 289.206 240.203 279.864 241.28C279.958 245.854 280.115 249.98 280.348 253.67C280.689 260.502 281.627 266.009 282.993 270.191C284.358 274.444 286.321 277.441 288.966 279.323C291.611 281.205 295.109 282.111 299.631 282.111C303.13 282.111 307.311 281.623 312.089 280.578C316.867 279.532 321.731 278.138 326.765 276.395C331.799 274.722 336.577 272.84 341.1 270.819C345.622 268.797 349.377 266.776 352.363 264.754L349.974 259.456C345.281 261.268 340.588 262.593 335.98 263.639C331.287 264.615 327.021 265.103 323.011 265.103C320.878 265.103 319 264.893 317.379 264.545C315.843 264.127 314.393 263.43 313.284 262.314Z" fill="white"/>
<path fill-rule="evenodd" clip-rule="evenodd" d="M465.932 246.212C465.932 252.137 466.871 257.295 468.663 261.826C470.455 266.288 473.1 270.052 476.427 272.98C479.755 275.977 483.68 278.208 488.288 279.671C492.895 281.205 497.844 281.901 503.305 281.971C510.558 281.901 517.47 280.716 524.039 278.346C530.609 275.976 536.668 272.492 542.299 267.961L538.63 263.569C530.78 267.403 523.613 269.355 517.128 269.355C509.876 269.355 504.073 266.915 499.636 261.966C495.114 257.016 492.895 249.697 492.895 239.868C492.895 233.664 493.151 227.46 493.578 221.187C494.056 215.329 494.534 209.653 495.082 204.104C485.505 206.344 475.757 208.543 465.829 210.694C465.129 214.202 464.071 217.662 462.69 221.047C460.813 225.648 458.509 229.97 455.693 234.152C452.792 238.335 449.635 242.099 446.137 245.654C442.553 249.139 438.884 252.137 434.959 254.646C431.119 257.156 427.194 259.178 423.184 260.572C419.173 262.035 415.334 262.732 411.579 262.732C408.252 262.732 405.351 262.245 402.961 261.129C400.572 260.084 398.61 258.689 397.074 256.807C395.538 254.995 394.429 252.834 393.746 250.464C393.064 248.024 392.637 245.515 392.637 242.796C392.637 238.126 393.661 234.013 395.538 230.458C396.923 227.901 398.646 225.621 400.71 223.57C390.35 225.426 379.807 227.225 369.076 228.959C367.771 230.646 366.608 232.399 365.588 234.221C362.943 239.17 361.578 244.608 361.578 250.603C361.578 255.204 362.517 259.526 364.394 263.43C366.271 267.333 368.831 270.678 372.244 273.536C375.572 276.394 379.668 278.696 384.446 280.299C389.139 281.902 394.429 282.739 400.146 282.739C407.143 282.739 413.883 281.344 420.197 278.626C426.597 275.838 432.57 272.282 438.201 267.821C443.833 263.36 449.038 258.271 453.731 252.555C458.424 246.909 462.605 241.123 466.188 235.268H466.956C466.529 237.219 466.188 239.102 466.103 240.914C466.017 242.657 465.932 244.399 465.932 246.212Z" fill="white"/>
<path fill-rule="evenodd" clip-rule="evenodd" d="M469.047 183.66C478.488 181.544 487.904 179.412 497.284 177.267C497.371 175.184 497.418 173.185 497.418 171.276C497.418 164.723 496.479 158.867 494.687 153.709C492.895 148.481 490.08 144.089 486.24 140.465C482.315 136.84 477.281 134.052 471.137 132.169C464.908 130.218 457.4 129.312 448.696 129.312C443.918 129.312 438.798 129.73 433.252 130.566C427.706 131.403 422.16 132.657 416.699 134.261C411.153 135.864 405.863 137.816 400.658 140.116C395.538 142.416 390.93 145.065 387.006 147.993C383.166 150.921 380.009 154.127 377.62 157.683C375.23 161.238 374.036 165.002 374.036 168.975C374.036 171.485 374.548 173.646 375.572 175.667C376.681 177.619 378.046 179.292 379.838 180.616C381.63 182.011 383.763 183.056 386.238 183.753C388.712 184.45 391.357 184.799 394.173 184.799C399.037 184.799 403.815 183.893 408.508 181.941L409.02 180.826C406.204 177.689 404.071 174.482 402.62 171.206C401.169 167.929 400.402 164.583 400.402 161.377C400.402 158.519 400.999 155.94 402.108 153.5C403.217 151.13 405.095 149.039 407.569 147.226C410.129 145.484 413.457 144.089 417.552 143.044C421.648 142.068 426.597 141.51 432.57 141.51C436.921 141.51 441.358 142.138 445.795 143.392C450.232 144.578 454.157 146.459 457.656 148.969C461.154 151.478 463.97 154.755 466.188 158.658C468.321 162.632 469.431 167.302 469.431 172.67C469.431 176.575 469.318 180.251 469.047 183.66Z" fill="white"/>
<path fill-rule="evenodd" clip-rule="evenodd" d="M545.627 219.234C545.627 224.532 546.31 229.83 547.59 234.988C548.869 240.216 550.832 245.165 553.306 249.906C555.866 254.646 559.023 259.037 562.863 263.08C566.617 267.123 571.054 270.678 576.003 273.606C581.037 276.604 586.583 278.904 592.813 280.577C598.956 282.25 605.697 283.087 613.035 283.087C626.516 283.087 638.974 280.437 650.237 275.07C661.585 269.772 671.312 261.756 679.419 251.091L679.674 250.672C679.76 250.602 679.76 250.463 679.76 250.184C679.76 249.766 679.504 249.348 678.992 248.86C678.48 248.372 677.968 247.884 677.286 247.396C676.603 246.978 675.835 246.49 675.067 246.141C674.299 245.793 673.616 245.514 673.19 245.305C665.852 252.485 658.258 257.713 650.493 260.919C642.643 264.195 634.964 265.799 627.37 265.799C620.202 265.799 613.461 264.405 607.147 261.616C600.833 258.828 595.287 254.924 590.509 249.836C585.816 244.747 581.976 238.613 579.245 231.433C576.43 224.253 575.065 216.306 575.065 207.523C575.065 202.574 575.406 197.555 576.259 192.466C576.817 189.095 577.557 185.783 578.503 182.512C569.49 185.067 560.313 187.597 550.965 190.096C550.045 192.618 549.236 195.173 548.528 197.764C546.651 204.944 545.627 212.124 545.627 219.234Z" fill="white"/>
<path fill-rule="evenodd" clip-rule="evenodd" d="M628.394 141.719C632.738 141.719 636.531 142.234 639.849 143.201C649.418 140.824 658.869 138.459 668.184 136.114C664.528 134.331 660.337 132.923 655.613 131.82C649.725 130.496 643.326 129.799 636.499 129.799C627.37 129.799 618.752 130.984 610.646 133.424C602.54 135.864 595.202 139.14 588.461 143.392C581.72 147.644 575.747 152.663 570.457 158.449C569.802 159.156 569.159 159.871 568.528 160.593C577.411 158.469 586.231 156.344 594.976 154.221C595.709 153.543 596.466 152.885 597.249 152.245C601.174 148.968 605.697 146.389 610.902 144.577C616.106 142.695 621.909 141.719 628.394 141.719Z" fill="white"/>
<path fill-rule="evenodd" clip-rule="evenodd" d="M655.442 161.377C655.442 165.211 654.247 169.045 651.858 172.809L652.37 173.925C654.333 174.552 656.21 175.11 658.172 175.389C660.135 175.667 662.097 175.877 663.889 175.877C666.876 175.877 669.691 175.458 672.251 174.691C674.726 173.855 676.944 172.74 678.821 171.206C680.698 169.673 682.149 167.86 683.173 165.699C684.282 163.538 684.794 161.098 684.794 158.31C684.794 155.318 684.181 152.527 683.011 149.936C673.95 152.988 664.717 156.05 655.297 159.109C655.393 159.845 655.442 160.6 655.442 161.377Z" fill="white"/>
<path fill-rule="evenodd" clip-rule="evenodd" d="M726.689 78.564C725.921 90.763 725.068 103.031 724.3 115.509C724.154 117.648 724.008 119.782 723.862 121.913C733.28 119.481 742.502 117.085 751.506 114.732C751.932 110.705 752.388 106.596 752.884 102.404C753.908 93.691 755.018 84.35 756.212 74.382C757.407 64.413 758.772 53.609 760.223 41.967C761.758 30.326 763.465 17.57 765.428 3.55802C759.881 1.39702 754.676 0.282227 749.642 0.282227C747.338 0.282227 745.035 0.491421 742.901 0.839821C740.768 1.18802 738.806 1.67602 737.099 2.44302C735.393 3.14002 733.942 4.04603 732.918 5.30103C731.809 6.48603 731.212 7.88002 731.127 9.48402C730.444 20.149 729.761 31.232 728.993 42.874C728.311 54.515 727.457 66.435 726.689 78.564Z" fill="white"/>
<path fill-rule="evenodd" clip-rule="evenodd" d="M752.884 201.041C748.789 208.987 745.29 216.934 742.304 225.09L741.536 224.951C742.39 215.331 743.157 206.408 743.84 197.974C744.523 189.609 745.205 181.522 745.888 173.715C746.57 165.838 747.253 158.17 747.936 150.572C748.618 142.974 749.386 135.237 750.24 127.29C750.263 127.043 750.287 126.796 750.311 126.549C741.339 129.731 732.205 132.959 722.891 136.219C722.524 141.695 722.166 147.151 721.826 152.594C721.058 164.792 720.29 176.852 719.437 188.633C718.669 200.483 717.901 211.845 717.218 222.72C716.535 233.594 715.853 243.911 715.17 253.601C714.573 263.29 714.061 272.143 713.549 280.229L715.512 280.299L740.768 277.65C742.901 265.032 745.802 253.182 749.386 242.098C752.97 231.015 756.98 220.838 761.502 211.567C766.025 202.296 770.888 194.07 776.179 186.751C781.383 179.501 786.759 173.297 792.305 168.278C797.852 163.259 803.483 159.425 809.115 156.776C814.661 154.127 820.122 152.803 825.412 152.803C827.63 152.803 829.764 153.082 831.726 153.709C833.689 154.267 835.395 155.173 836.846 156.288C838.296 157.403 839.405 158.798 840.344 160.401C841.197 162.004 841.624 163.747 841.624 165.629C841.624 170.16 840.003 174.621 836.76 179.013C833.518 183.335 828.91 187.517 822.938 191.491C816.965 195.394 809.883 199.159 801.606 202.574C793.415 206.06 784.285 209.197 774.302 211.915L773.79 213.1C781.725 225.16 788.807 235.546 795.036 244.19C801.179 252.903 806.811 260.083 811.93 265.73C817.05 271.376 821.828 275.489 826.35 278.207C830.788 280.926 835.224 282.25 839.747 282.25C843.587 282.25 848.023 281.693 853.058 280.647C858.092 279.602 863.212 278.207 868.331 276.534C873.451 274.792 878.314 272.979 882.836 270.888C887.444 268.867 891.284 266.845 894.27 264.893L891.881 259.595C887.103 261.338 882.41 262.802 877.717 263.847C873.109 264.963 868.587 265.521 864.235 265.521C862.102 265.521 859.884 265.311 857.751 264.963C855.617 264.545 853.314 263.778 850.839 262.523C848.365 261.338 845.634 259.526 842.733 257.155C839.832 254.716 836.59 251.509 832.921 247.466C829.337 243.423 825.241 238.404 820.804 232.479C816.367 226.484 811.333 219.374 805.787 210.939C815.173 207.245 823.706 203.132 831.47 198.74C839.15 194.349 845.719 189.748 851.266 184.799C856.727 179.919 860.993 174.831 863.979 169.533C866.966 164.235 868.502 158.728 868.502 153.082C868.502 149.457 867.819 146.181 866.283 143.253C864.833 140.325 862.785 137.816 860.225 135.794C857.58 133.703 854.508 132.1 850.925 130.984C847.341 129.869 843.416 129.311 839.15 129.311C832.409 129.311 825.753 130.496 819.098 133.006C812.528 135.515 806.214 138.931 799.985 143.253C793.841 147.645 787.954 152.803 782.237 158.867C776.605 164.862 771.315 171.415 766.366 178.525C761.503 185.635 756.98 193.164 752.884 201.041Z" fill="white"/>
<path fill-rule="evenodd" clip-rule="evenodd" d="M132.477 280.578C139.081 270.987 145.488 261.534 151.683 252.205C146.148 252.518 140.574 252.815 134.959 253.094C134.559 253.727 134.158 254.361 133.757 254.995H132.989C132.866 254.398 132.743 253.802 132.62 253.208C122.812 253.686 112.881 254.109 102.825 254.477C104.944 263.224 107.121 272.273 109.354 281.623L111.999 281.972L132.477 280.578Z" fill="white"/>
</g>
<defs>
<clipPath id="clip0_227_2">
<rect width="895" height="284" fill="white"/>
</clipPath>
</defs>
</svg>
