<?xml version="1.0" encoding="UTF-8"?>
<!DOCTYPE svg PUBLIC "-//W3C//DTD SVG 1.1//EN" "http://www.w3.org/Graphics/SVG/1.1/DTD/svg11.dtd">
<!-- Creator: CorelDRAW 2019 (64-Bit) -->
<svg xmlns="http://www.w3.org/2000/svg" xml:space="preserve" width="297mm" height="210mm" version="1.1" style="shape-rendering:geometricPrecision; text-rendering:geometricPrecision; image-rendering:optimizeQuality; fill-rule:evenodd; clip-rule:evenodd"
viewBox="0 0 29700 21000"
 xmlns:xlink="http://www.w3.org/1999/xlink"
 xmlns:xodm="http://www.corel.com/coreldraw/odm/2003">
 <defs>
  <style type="text/css">
   <![CDATA[
    .fil1 {fill:#2B2A29}
    .fil0 {fill:#918E85}
   ]]>
  </style>
 </defs>
 <g id="Layer_x0020_1">
  <metadata id="CorelCorpID_0Corel-Layer"/>
  <g id="_2217214281328">
   <path class="fil0" d="M24736.36 12130.72c180.48,313.33 345.92,571.51 496.31,774.55 150.4,203.03 290.77,350.92 423.62,448.68 130.35,97.76 260.69,145.39 393.54,145.39 112.8,0 243.14,-20.06 391.03,-57.66 147.89,-37.59 298.29,-87.73 448.69,-147.89 150.4,-62.66 293.27,-127.83 426.12,-203.03 135.36,-72.69 248.16,-145.39 335.89,-215.57l-70.18 -190.5c-140.38,62.66 -278.24,115.3 -416.1,152.9 -135.36,40.11 -268.21,60.16 -396.05,60.16 -62.66,0 -127.84,-7.52 -190.5,-20.05 -62.67,-15.04 -130.35,-42.62 -203.04,-87.74 -72.69,-42.61 -152.9,-107.78 -238.13,-193.01 -85.22,-87.73 -180.47,-203.03 -288.26,-348.42 -105.28,-145.38 -225.59,-325.86 -355.94,-538.92 -130.34,-215.57 -278.23,-471.24 -441.16,-774.54 275.73,-132.85 526.39,-280.75 754.49,-438.66 225.6,-157.92 418.6,-323.36 581.53,-501.33 160.43,-175.46 285.76,-358.44 373.49,-548.95 87.73,-190.5 132.85,-388.52 132.85,-591.56 0,-130.34 -20.05,-248.15 -65.17,-353.43 -42.61,-105.28 -102.77,-195.52 -177.97,-268.21 -77.71,-75.2 -167.94,-132.85 -273.22,-172.96 -105.28,-40.1 -220.58,-60.15 -345.91,-60.15 -198.03,0 -393.54,42.61 -589.06,132.85 -193.01,90.24 -378.5,213.06 -561.48,368.47 -180.48,157.92 -353.44,343.41 -521.38,561.48 -165.44,215.57 -320.85,451.19 -466.23,706.87 -142.88,255.67 -275.73,526.39 -396.05,809.64 -120.31,285.75 -223.09,571.51 -310.82,864.78l-22.56 -5.01c25.07,-345.92 47.63,-666.76 67.68,-970.06 20.06,-300.8 40.11,-591.57 60.16,-872.31 20.05,-283.25 40.11,-558.97 60.16,-832.2 20.05,-273.22 42.61,-551.45 67.68,-837.21 0.7,-8.87 1.4,-17.75 2.11,-26.64 -263.57,114.43 -531.91,230.51 -805.53,347.72 -10.78,196.92 -21.28,393.12 -31.29,588.83 -22.55,438.65 -45.11,872.3 -70.18,1295.92 -22.56,426.12 -45.12,834.7 -65.17,1225.73 -20.06,391.04 -40.11,762.02 -60.16,1110.44 -17.55,348.42 -32.59,666.76 -47.63,957.52l57.66 2.51 741.95 -95.25c62.67,-453.7 147.89,-879.82 253.17,-1278.38 105.28,-398.55 223.09,-764.51 355.94,-1097.89 132.85,-333.38 275.73,-629.17 431.14,-892.36 152.9,-260.69 310.82,-483.78 473.75,-664.25 162.93,-180.48 328.37,-318.34 493.81,-413.6 162.93,-95.25 323.35,-142.87 478.76,-142.87 65.17,0 127.84,10.02 185.49,32.58 57.65,20.06 107.78,52.64 150.4,92.75 42.61,40.1 75.19,90.24 102.77,147.89 25.06,57.65 37.6,120.32 37.6,187.99 0,162.93 -47.63,323.36 -142.88,481.27 -95.25,155.42 -230.61,305.81 -406.07,448.69 -175.47,140.37 -383.51,275.73 -626.66,398.55 -240.63,125.33 -508.84,238.13 -802.11,335.89l-15.04 42.61c233.11,433.65 441.16,807.13 624.14,1117.95z"/>
   <path class="fil0" d="M21129.34 9631.62c72.69,-30.07 137.86,-70.18 193.01,-125.33 55.14,-55.14 97.76,-120.31 127.83,-198.02 32.59,-77.7 47.63,-165.44 47.63,-265.7 0,-107.59 -18.02,-207.96 -52.39,-301.14 -266.18,109.77 -537.42,219.86 -814.13,329.85 2.81,26.49 4.24,53.62 4.24,81.58 0,137.86 -35.09,275.73 -105.27,411.09l15.04 40.1c57.65,22.56 112.79,42.61 170.45,52.64 57.65,10.03 115.3,17.55 167.94,17.55 87.73,0 170.45,-15.04 245.65,-42.62z"/>
   <path class="fil0" d="M17635.11 12336.27c75.2,170.45 167.95,328.36 280.74,473.75 110.29,145.38 240.64,273.22 386.02,378.5 147.89,107.78 310.82,190.5 493.81,250.66 180.47,60.16 378.5,90.24 594.06,90.24 396.05,0 762.02,-95.26 1092.89,-288.26 333.38,-190.51 619.13,-478.77 857.26,-862.28l7.52 -15.04c2.51,-2.51 2.51,-7.52 2.51,-17.55 0,-15.04 -7.52,-30.08 -22.56,-47.62 -15.04,-17.55 -30.08,-35.1 -50.13,-52.64 -20.05,-15.04 -42.61,-32.59 -65.17,-45.12 -22.56,-12.53 -42.62,-22.56 -55.15,-30.08 -215.57,258.18 -438.66,446.18 -666.76,561.48 -230.61,117.81 -456.2,175.46 -679.29,175.46 -210.56,0 -408.58,-50.13 -594.07,-150.39 -185.49,-100.27 -348.42,-240.64 -488.79,-423.62 -137.87,-182.98 -250.66,-403.57 -330.88,-661.75 -82.71,-258.18 -122.82,-543.93 -122.82,-859.77 0,-177.97 10.03,-358.44 35.09,-541.43 16.38,-121.23 38.12,-240.31 65.91,-357.95 -264.76,91.87 -534.34,182.86 -808.97,272.71 -27.04,90.69 -50.78,182.57 -71.59,275.75 -55.14,258.18 -85.22,516.36 -85.22,772.03 0,190.51 20.05,381.01 57.65,566.5 37.6,188 95.25,365.97 167.94,536.42z"/>
   <path class="fil0" d="M15068.34 12203.42c0,213.06 27.57,398.55 80.21,561.48 52.64,160.42 130.34,295.78 228.1,401.06 97.76,107.78 213.06,187.99 348.42,240.63 135.36,55.15 280.74,80.21 441.17,82.72 213.06,-2.51 416.1,-45.12 609.1,-130.34 193.01,-85.23 370.98,-210.56 536.42,-373.49l-107.78 -157.92c-230.61,137.87 -441.17,208.05 -631.67,208.05 -213.06,0 -383.51,-87.73 -513.86,-265.7 -132.85,-177.97 -198.02,-441.16 -198.02,-794.6 0,-223.09 7.52,-446.18 20.05,-671.77 14.04,-210.65 28.09,-414.73 44.17,-614.29 -281.33,80.57 -567.7,159.64 -859.34,236.97 -20.58,126.15 -51.65,250.59 -92.22,372.31 -55.15,165.43 -122.83,320.84 -205.55,471.24 -85.22,150.4 -177.97,285.75 -280.74,413.59 -105.28,125.33 -213.06,233.12 -328.36,323.36 -112.8,90.23 -228.11,162.93 -345.92,213.06 -117.81,52.64 -230.61,77.7 -340.9,77.7 -97.76,0 -182.98,-17.54 -253.17,-57.65 -70.18,-37.6 -127.83,-87.73 -172.95,-155.41 -45.12,-65.17 -77.71,-142.88 -97.76,-228.1 -20.05,-87.73 -32.59,-177.97 -32.59,-275.73 0,-167.94 30.08,-315.83 85.23,-443.67 40.67,-91.94 91.31,-173.91 151.93,-247.66 -304.35,66.74 -614.05,131.4 -929.31,193.78 -38.34,60.64 -72.49,123.71 -102.45,189.24 -77.7,177.97 -117.81,373.48 -117.81,589.05 0,165.44 27.58,320.85 82.72,461.22 55.15,140.37 130.35,260.69 230.61,363.46 97.76,102.77 218.08,185.49 358.45,243.14 137.86,57.65 293.27,87.73 461.21,87.73 205.55,0 403.57,-50.13 589.06,-147.89 188,-100.26 363.46,-228.1 528.9,-388.52 165.43,-160.43 318.34,-343.41 456.2,-548.95 137.87,-203.04 260.69,-411.09 365.97,-621.64l22.56 0c-12.54,70.18 -22.56,137.86 -25.07,203.03 -2.51,62.67 -5.01,125.33 -5.01,190.51z"/>
   <path class="fil0" d="M9556.44 12491.62c10.03,245.65 37.6,443.67 77.71,594.07 40.1,152.91 97.76,260.69 175.46,328.37 77.71,67.68 180.48,100.26 313.33,100.26 102.77,0 225.59,-17.54 365.97,-55.14 140.37,-37.6 283.24,-87.73 431.13,-150.4 147.89,-60.16 288.26,-127.84 421.12,-200.53 132.85,-72.69 243.14,-145.38 330.87,-218.07l-70.19 -190.51c-137.86,65.17 -275.72,112.8 -411.08,150.4 -137.87,35.09 -263.2,52.64 -381.01,52.64 -62.66,0 -117.81,-7.52 -165.43,-20.05 -45.12,-15.04 -87.74,-40.11 -120.32,-80.22 -35.09,-37.6 -62.67,-95.25 -87.73,-167.94 -22.56,-72.69 -40.11,-170.45 -55.15,-290.77 -12,-115.23 -21.71,-253.48 -26.91,-419.11 -266.9,42.21 -537.53,82.73 -811.97,121.47 2.76,164.46 7.36,312.84 14.2,445.53z"/>
   <path class="fil0" d="M5272.47 13489.18c193.99,-344.87 382.22,-684.8 564.2,-1020.25 -162.58,11.27 -326.35,21.92 -491.3,31.95 -11.74,22.78 -23.51,45.57 -35.3,68.37l-22.56 0c-3.62,-21.47 -7.23,-42.88 -10.85,-64.24 -288.11,17.16 -579.85,32.4 -875.28,45.62 62.27,314.54 126.21,639.92 191.8,976.15l77.71 12.53 601.58 -50.13z"/>
   <path class="fil1" d="M5272.47 13649.18c193.99,-344.87 382.22,-684.8 564.2,-1020.25 -162.58,11.27 -326.35,21.92 -491.3,31.95 -11.74,22.78 -23.51,45.57 -35.3,68.37l-22.56 0c-3.62,-21.47 -7.23,-42.88 -10.85,-64.24 -288.11,17.16 -579.85,32.4 -875.28,45.62 62.27,314.54 126.21,639.92 191.8,976.15l77.71 12.53 601.58 -50.13z"/>
   <path class="fil1" d="M4365.89 12531.63c283.35,-37.66 572.49,-79.33 866.81,-124.73 -130.94,-763.12 -257.79,-1453.04 -378.83,-2071.47 -140.37,-706.87 -270.72,-1331.02 -393.54,-1879.97 -122.82,-546.44 -240.64,-1020.19 -348.42,-1423.75 -105.28,-403.57 -205.54,-746.98 -295.78,-1032.73 -52.64,-162.93 -100.27,-300.8 -145.38,-418.61 -45.12,-115.3 -97.76,-210.55 -155.42,-285.75 -57.65,-75.2 -125.33,-130.35 -205.54,-165.44 -82.72,-35.09 -185.49,-52.64 -308.31,-52.64 -175.47,0 -388.53,25.07 -644.2,77.71 -253.17,50.13 -571.51,125.33 -950.01,220.58l40.1 325.86c125.34,-20.05 235.63,-35.09 333.38,-45.12 97.76,-12.53 188,-17.54 268.21,-17.54 127.84,0 235.63,15.04 325.86,40.1 90.24,27.57 167.95,70.19 233.12,130.35 65.17,57.65 125.33,132.85 175.46,225.59 52.64,95.25 102.77,205.54 150.4,335.89 193.01,506.34 423.62,1366.11 691.83,2581.82 210.86,964.79 458.03,2158.49 740.26,3579.85z"/>
   <path class="fil1" d="M6588.45 10142.42c-190.5,411.08 -396.05,837.21 -611.62,1270.85 -158.02,316.06 -317.36,633.43 -479.93,952.11 174.58,-27.94 350.89,-57.13 528.79,-87.52 69.94,-130.94 138.89,-261.2 206.82,-390.83 303.3,-574.02 581.53,-1122.97 837.21,-1646.85 253.17,-521.38 483.78,-1012.68 686.81,-1473.89 205.55,-458.72 378.5,-877.32 521.38,-1250.81 140.37,-375.99 250.66,-701.85 325.86,-980.09 75.2,-280.74 112.8,-498.81 112.8,-659.24 0,-177.97 -30.08,-325.86 -87.73,-446.17 -60.16,-120.32 -137.87,-215.57 -233.12,-288.26 -97.76,-70.19 -205.54,-120.32 -325.86,-150.4 -120.32,-32.59 -245.65,-47.63 -368.47,-47.63 -52.64,0 -102.77,2.51 -150.4,7.52 -50.13,5.02 -97.76,12.54 -145.38,20.06l-27.58 65.17c338.4,293.27 508.85,699.34 508.85,1215.71 0,203.03 -30.08,441.16 -95.25,716.89 -62.67,275.73 -152.91,579.03 -268.21,912.41 -115.31,333.38 -250.66,689.32 -411.09,1070.33 -157.91,381 -333.38,777.05 -523.88,1190.64z"/>
   <path class="fil1" d="M9741.77 8239.9c-17.54,398.55 -37.6,782.06 -55.14,1155.55 -15.04,370.98 -30.08,714.38 -45.12,1027.71 -12.53,313.33 -22.56,589.06 -30.08,824.68 -3.79,118.83 -6.95,223.63 -9.14,314.73 265.71,-59.68 532.94,-120.94 801.36,-183.64 1.07,-358.79 8.55,-732.52 22.43,-1121.21 15.04,-421.11 35.09,-849.74 62.67,-1285.89 25.06,-438.66 57.65,-882.33 95.25,-1331.02 35.09,-451.19 75.2,-899.87 117.81,-1346.05 45.12,-448.69 90.24,-889.85 137.86,-1326 47.63,-436.15 95.25,-864.78 145.39,-1280.88 -162.93,-77.71 -315.84,-117.81 -463.73,-117.81 -62.66,0 -127.84,7.52 -187.99,20.05 -62.67,12.53 -120.32,30.08 -170.45,57.65 -50.14,25.07 -90.24,57.65 -122.83,102.77 -32.58,42.61 -47.62,92.75 -50.13,150.4 -17.55,258.18 -37.6,553.96 -55.15,889.85 -20.05,335.89 -42.61,691.83 -62.66,1070.32 -22.56,378.5 -45.12,769.54 -67.68,1175.61 -22.56,403.56 -42.61,804.62 -62.67,1203.18z"/>
   <path class="fil1" d="M10584 12992.44c-35.09,-37.6 -62.67,-95.25 -87.73,-167.94 -22.56,-72.69 -40.11,-170.45 -55.15,-290.77 -12,-115.23 -21.71,-253.48 -26.91,-419.11 -266.9,42.21 -537.53,82.73 -811.97,121.47 2.76,164.46 7.36,312.84 14.2,445.53 10.03,245.65 37.6,443.67 77.71,594.07 40.1,152.91 97.76,260.69 175.46,328.37 77.71,67.68 180.48,100.26 313.33,100.26 102.77,0 225.59,-17.54 365.97,-55.14 140.37,-37.6 283.24,-87.73 431.13,-150.4 147.89,-60.16 288.26,-127.84 421.12,-200.53 132.85,-72.69 243.14,-145.38 330.87,-218.07l-70.19 -190.51c-137.86,65.17 -275.72,112.8 -411.08,150.4 -137.87,35.09 -263.2,52.64 -381.01,52.64 -62.66,0 -117.81,-7.52 -165.43,-20.05 -45.12,-15.04 -87.74,-40.11 -120.32,-80.22z"/>
   <path class="fil1" d="M15068.34 12413.42c0,213.06 27.57,398.55 80.21,561.48 52.64,160.42 130.34,295.78 228.1,401.06 97.76,107.78 213.06,187.99 348.42,240.63 135.36,55.15 280.74,80.21 441.17,82.72 213.06,-2.51 416.1,-45.12 609.1,-130.34 193.01,-85.23 370.98,-210.56 536.42,-373.49l-107.78 -157.92c-230.61,137.87 -441.17,208.05 -631.67,208.05 -213.06,0 -383.51,-87.73 -513.86,-265.7 -132.85,-177.97 -198.02,-441.16 -198.02,-794.6 0,-223.09 7.52,-446.18 20.05,-671.77 14.04,-210.65 28.09,-414.73 44.17,-614.29 -281.33,80.57 -567.7,159.64 -859.34,236.97 -20.58,126.15 -51.65,250.59 -92.22,372.31 -55.15,165.43 -122.83,320.84 -205.55,471.24 -85.22,150.4 -177.97,285.75 -280.74,413.59 -105.28,125.33 -213.06,233.12 -328.36,323.36 -112.8,90.23 -228.11,162.93 -345.92,213.06 -117.81,52.64 -230.61,77.7 -340.9,77.7 -97.76,0 -182.98,-17.54 -253.17,-57.65 -70.18,-37.6 -127.83,-87.73 -172.95,-155.41 -45.12,-65.17 -77.71,-142.88 -97.76,-228.1 -20.05,-87.73 -32.59,-177.97 -32.59,-275.73 0,-167.94 30.08,-315.83 85.23,-443.67 40.67,-91.94 91.31,-173.91 151.93,-247.66 -304.35,66.74 -614.05,131.4 -929.31,193.78 -38.34,60.64 -72.49,123.71 -102.45,189.24 -77.7,177.97 -117.81,373.48 -117.81,589.05 0,165.44 27.58,320.85 82.72,461.22 55.15,140.37 130.35,260.69 230.61,363.46 97.76,102.77 218.08,185.49 358.45,243.14 137.86,57.65 293.27,87.73 461.21,87.73 205.55,0 403.57,-50.13 589.06,-147.89 188,-100.26 363.46,-228.1 528.9,-388.52 165.43,-160.43 318.34,-343.41 456.2,-548.95 137.87,-203.04 260.69,-411.09 365.97,-621.64l22.56 0c-12.54,70.18 -22.56,137.86 -25.07,203.03 -2.51,62.67 -5.01,125.33 -5.01,190.51z"/>
   <path class="fil1" d="M15159.85 10164.14c277.34,-76.08 553.95,-152.76 829.49,-229.89 2.56,-74.9 3.94,-146.78 3.94,-215.45 0,-235.62 -27.57,-446.18 -80.21,-631.67 -52.64,-187.99 -135.36,-345.91 -248.16,-476.26 -115.3,-130.34 -263.19,-230.6 -443.67,-298.28 -182.98,-70.19 -403.56,-102.77 -659.24,-102.77 -140.37,0 -290.77,15.04 -453.7,45.12 -162.93,30.07 -325.86,75.19 -486.28,132.85 -162.93,57.65 -318.34,127.83 -471.25,210.55 -150.39,82.72 -285.75,177.97 -401.05,283.25 -112.8,105.28 -205.55,220.58 -275.73,348.42 -70.19,127.84 -105.28,263.19 -105.28,406.07 0,90.24 15.04,167.95 45.12,240.64 32.58,70.18 72.69,130.34 125.33,177.97 52.64,50.13 115.3,87.73 188,112.8 72.69,25.06 150.39,37.59 233.11,37.59 142.88,0 283.25,-32.58 421.11,-102.77l15.04 -40.1c-82.72,-112.8 -145.38,-228.11 -187.99,-345.92 -42.62,-117.81 -65.18,-238.13 -65.18,-353.43 0,-102.77 17.55,-195.52 50.14,-283.25 32.58,-85.22 87.73,-160.42 160.42,-225.59 75.2,-62.67 172.96,-112.8 293.27,-150.4 120.32,-35.09 265.71,-55.15 441.17,-55.15 127.84,0 258.18,22.56 388.53,67.68 130.34,42.62 245.64,110.29 348.42,200.53 102.77,90.24 185.49,208.05 250.66,348.42 62.66,142.88 95.25,310.82 95.25,503.83 0,140.45 -3.3,272.63 -11.26,395.21z"/>
   <path class="fil1" d="M17409.52 11443.35c0,190.51 20.05,381.01 57.65,566.5 37.6,188 95.25,365.97 167.94,536.42 75.2,170.45 167.95,328.36 280.74,473.75 110.29,145.38 240.64,273.22 386.02,378.5 147.89,107.78 310.82,190.5 493.81,250.66 180.47,60.16 378.5,90.24 594.06,90.24 396.05,0 762.02,-95.26 1092.89,-288.26 333.38,-190.51 619.13,-478.77 857.26,-862.28l7.52 -15.04c2.51,-2.51 2.51,-7.52 2.51,-17.55 0,-15.04 -7.52,-30.08 -22.56,-47.62 -15.04,-17.55 -30.08,-35.1 -50.13,-52.64 -20.05,-15.04 -42.61,-32.59 -65.17,-45.12 -22.56,-12.53 -42.62,-22.56 -55.15,-30.08 -215.57,258.18 -438.66,446.18 -666.76,561.48 -230.61,117.81 -456.2,175.46 -679.29,175.46 -210.56,0 -408.58,-50.13 -594.07,-150.39 -185.49,-100.27 -348.42,-240.64 -488.79,-423.62 -137.87,-182.98 -250.66,-403.57 -330.88,-661.75 -82.71,-258.18 -122.82,-543.93 -122.82,-859.77 0,-177.97 10.03,-358.44 35.09,-541.43 16.38,-121.23 38.12,-240.31 65.91,-357.95 -264.76,91.87 -534.34,182.86 -808.97,272.71 -27.04,90.69 -50.78,182.57 -71.59,275.75 -55.14,258.18 -85.22,516.36 -85.22,772.03z"/>
   <path class="fil1" d="M19840.94 8655.99c127.62,0 239.04,18.51 336.51,53.3 281.13,-85.48 558.76,-170.51 832.41,-254.86 -107.42,-64.09 -230.53,-114.72 -369.31,-154.38 -172.96,-47.62 -360.96,-72.69 -561.49,-72.69 -268.2,0 -521.37,42.61 -759.5,130.35 -238.13,87.73 -453.7,205.54 -651.72,358.44 -198.02,152.91 -373.49,333.38 -528.9,541.43 -19.23,25.44 -38.12,51.14 -56.66,77.11 260.96,-76.38 520.05,-152.81 776.96,-229.13 21.52,-24.37 43.77,-48.06 66.78,-71.07 115.3,-117.81 248.16,-210.55 401.06,-275.72 152.9,-67.68 323.35,-102.78 513.86,-102.78z"/>
   <path class="fil1" d="M20635.53 9362.86c0,137.86 -35.09,275.73 -105.27,411.09l15.04 40.1c57.65,22.56 112.79,42.61 170.45,52.64 57.65,10.03 115.3,17.55 167.94,17.55 87.73,0 170.45,-15.04 245.65,-42.62 72.69,-30.07 137.86,-70.18 193.01,-125.33 55.14,-55.14 97.76,-120.31 127.83,-198.02 32.59,-77.7 47.63,-165.44 47.63,-265.7 0,-107.59 -18.02,-207.96 -52.39,-301.14 -266.18,109.77 -537.42,219.86 -814.13,329.85 2.81,26.49 4.24,53.62 4.24,81.58z"/>
   <path class="fil1" d="M22728.56 6385c-22.56,438.66 -47.62,879.82 -70.18,1328.51 -4.3,76.9 -8.59,153.65 -12.88,230.26 276.68,-87.45 547.58,-173.61 812.09,-258.2 12.51,-144.82 25.91,-292.59 40.5,-443.31 30.08,-313.33 62.67,-649.21 97.76,-1007.66 35.09,-358.45 75.2,-746.97 117.81,-1165.58 45.12,-418.6 95.25,-877.31 152.91,-1381.14 -162.93,-77.71 -315.84,-117.81 -463.73,-117.81 -67.68,0 -135.35,7.52 -198.02,20.05 -62.67,12.53 -120.32,30.08 -170.45,57.65 -50.13,25.07 -92.75,57.65 -122.82,102.77 -32.59,42.61 -50.14,92.75 -52.64,150.4 -20.06,383.51 -40.11,782.06 -62.67,1200.67 -20.05,418.6 -45.12,847.24 -67.68,1283.39z"/>
   <path class="fil1" d="M23498.09 10789.13c-120.31,285.75 -223.09,571.51 -310.82,864.78l-22.56 -5.01c25.07,-345.92 47.63,-666.76 67.68,-970.06 20.06,-300.8 40.11,-591.57 60.16,-872.31 20.05,-283.25 40.11,-558.97 60.16,-832.2 20.05,-273.22 42.61,-551.45 67.68,-837.21 0.7,-8.87 1.4,-17.75 2.11,-26.64 -263.57,114.43 -531.91,230.51 -805.53,347.72 -10.78,196.92 -21.28,393.12 -31.29,588.83 -22.55,438.65 -45.11,872.3 -70.18,1295.92 -22.56,426.12 -45.12,834.7 -65.17,1225.73 -20.06,391.04 -40.11,762.02 -60.16,1110.44 -17.55,348.42 -32.59,666.76 -47.63,957.52l57.66 2.51 741.95 -95.25c62.67,-453.7 147.89,-879.82 253.17,-1278.38 105.28,-398.55 223.09,-764.51 355.94,-1097.89 132.85,-333.38 275.73,-629.17 431.14,-892.36 152.9,-260.69 310.82,-483.78 473.75,-664.25 162.93,-180.48 328.37,-318.34 493.81,-413.6 162.93,-95.25 323.35,-142.87 478.76,-142.87 65.17,0 127.84,10.02 185.49,32.58 57.65,20.06 107.78,52.64 150.4,92.75 42.61,40.1 75.19,90.24 102.77,147.89 25.06,57.65 37.6,120.32 37.6,187.99 0,162.93 -47.63,323.36 -142.88,481.27 -95.25,155.42 -230.61,305.81 -406.07,448.69 -175.47,140.37 -383.51,275.73 -626.66,398.55 -240.63,125.33 -508.84,238.13 -802.11,335.89l-15.04 42.61c233.11,433.65 441.16,807.13 624.14,1117.95 180.48,313.33 345.92,571.51 496.31,774.55 150.4,203.03 290.77,350.92 423.62,448.68 130.35,97.76 260.69,145.39 393.54,145.39 112.8,0 243.14,-20.06 391.03,-57.66 147.89,-37.59 298.29,-87.73 448.69,-147.89 150.4,-62.66 293.27,-127.83 426.12,-203.03 135.36,-72.69 248.16,-145.39 335.89,-215.57l-70.18 -190.5c-140.38,62.66 -278.24,115.3 -416.1,152.9 -135.36,40.11 -268.21,60.16 -396.05,60.16 -62.66,0 -127.84,-7.52 -190.5,-20.05 -62.67,-15.04 -130.35,-42.62 -203.04,-87.74 -72.69,-42.61 -152.9,-107.78 -238.13,-193.01 -85.22,-87.73 -180.47,-203.03 -288.26,-348.42 -105.28,-145.38 -225.59,-325.86 -355.94,-538.92 -130.34,-215.57 -278.23,-471.24 -441.16,-774.54 275.73,-132.85 526.39,-280.75 754.49,-438.66 225.6,-157.92 418.6,-323.36 581.53,-501.33 160.43,-175.46 285.76,-358.44 373.49,-548.95 87.73,-190.5 132.85,-388.52 132.85,-591.56 0,-130.34 -20.05,-248.15 -65.17,-353.43 -42.61,-105.28 -102.77,-195.52 -177.97,-268.21 -77.71,-75.2 -167.94,-132.85 -273.22,-172.96 -105.28,-40.1 -220.58,-60.15 -345.91,-60.15 -198.03,0 -393.54,42.61 -589.06,132.85 -193.01,90.24 -378.5,213.06 -561.48,368.47 -180.48,157.92 -353.44,343.41 -521.38,561.48 -165.44,215.57 -320.85,451.19 -466.23,706.87 -142.88,255.67 -275.73,526.39 -396.05,809.64z"/>
   <path class="fil1" d="M5272.47 13649.18c193.99,-344.87 382.22,-684.8 564.2,-1020.25 -162.58,11.27 -326.35,21.92 -491.3,31.95 -11.74,22.78 -23.51,45.57 -35.3,68.37l-22.56 0c-3.62,-21.47 -7.23,-42.88 -10.85,-64.24 -288.11,17.16 -579.85,32.4 -875.28,45.62 62.27,314.54 126.21,639.92 191.8,976.15l77.71 12.53 601.58 -50.13z"/>
   <path class="fil1" d="M5272.47 13649.18c193.99,-344.87 382.22,-684.8 564.2,-1020.25 -162.58,11.27 -326.35,21.92 -491.3,31.95 -11.74,22.78 -23.51,45.57 -35.3,68.37l-22.56 0c-3.62,-21.47 -7.23,-42.88 -10.85,-64.24 -288.11,17.16 -579.85,32.4 -875.28,45.62 62.27,314.54 126.21,639.92 191.8,976.15l77.71 12.53 601.58 -50.13z"/>
   <path class="fil1" d="M5272.47 13649.18c193.99,-344.87 382.22,-684.8 564.2,-1020.25 -162.58,11.27 -326.35,21.92 -491.3,31.95 -11.74,22.78 -23.51,45.57 -35.3,68.37l-22.56 0c-3.62,-21.47 -7.23,-42.88 -10.85,-64.24 -288.11,17.16 -579.85,32.4 -875.28,45.62 62.27,314.54 126.21,639.92 191.8,976.15l77.71 12.53 601.58 -50.13z"/>
  </g>
 </g>
</svg>
