<svg width="894" height="369" viewBox="0 0 894 369" fill="none" xmlns="http://www.w3.org/2000/svg">
<path fill-rule="evenodd" clip-rule="evenodd" d="M794.132 238.068C800.275 246.781 805.907 253.961 811.026 259.608C816.146 265.254 820.924 269.367 825.446 272.085C829.884 274.804 834.32 276.129 838.843 276.129C842.683 276.129 847.119 275.571 852.154 274.525C857.188 273.48 862.308 272.085 867.427 270.412C872.547 268.67 877.41 266.857 881.932 264.766C886.54 262.745 890.38 260.723 893.366 258.771L890.977 253.474C886.199 255.216 881.506 256.68 876.813 257.726C872.205 258.841 867.683 259.399 863.331 259.399C861.198 259.399 858.98 259.19 856.847 258.841C854.713 258.423 852.41 257.656 849.935 256.401C847.461 255.216 844.73 253.404 841.829 251.034C838.928 248.594 835.686 245.387 832.017 241.344C828.433 237.301 824.337 232.282 819.9 226.357C815.463 220.362 810.429 213.252 804.883 204.817C814.269 201.123 822.802 197.01 830.566 192.619C838.246 188.227 844.815 183.626 850.362 178.677C855.823 173.797 860.089 168.709 863.075 163.411C866.062 158.113 867.598 152.606 867.598 146.96C867.598 143.335 866.915 140.059 865.379 137.131C863.929 134.203 861.881 131.694 859.321 129.672C856.676 127.581 853.604 125.978 850.021 124.862C846.437 123.747 842.512 123.19 838.246 123.19C831.505 123.19 824.849 124.375 818.194 126.884C811.624 129.394 805.31 132.809 799.081 137.131C792.937 141.523 787.05 146.681 781.333 152.746C775.701 158.74 770.411 165.293 765.462 172.403C760.599 179.513 756.076 187.042 751.98 194.919C747.885 202.866 744.386 210.812 741.4 218.968L740.632 218.829C741.486 209.209 742.253 200.286 742.936 191.852C743.619 183.487 744.301 175.401 744.984 167.593C745.666 159.716 746.349 152.049 747.032 144.45C747.714 136.852 748.482 129.115 749.336 121.168C749.359 120.921 749.383 120.674 749.407 120.427C740.435 123.609 731.301 126.837 721.987 130.097C721.62 135.573 721.262 141.029 720.922 146.472C720.154 158.671 719.386 170.73 718.533 182.511C717.765 194.361 716.997 205.724 716.314 216.598C715.631 227.473 714.949 237.789 714.266 247.479C713.669 257.168 713.157 266.021 712.645 274.107L714.608 274.177L739.864 271.528C741.997 258.911 744.898 247.06 748.482 235.977C752.066 224.893 756.076 214.716 760.598 205.445C765.121 196.174 769.984 187.948 775.275 180.629C780.479 173.379 785.855 167.175 791.401 162.156C796.948 157.137 802.579 153.303 808.211 150.654C813.757 148.005 819.218 146.681 824.508 146.681C826.726 146.681 828.86 146.96 830.822 147.587C832.785 148.145 834.491 149.051 835.942 150.166C837.392 151.282 838.501 152.676 839.44 154.279C840.293 155.882 840.72 157.625 840.72 159.507C840.72 164.038 839.099 168.5 835.856 172.891C832.614 177.213 828.006 181.395 822.034 185.369C816.061 189.273 808.979 193.037 800.702 196.452C792.511 199.938 783.381 203.075 773.398 205.793L772.886 206.978C780.821 219.038 787.903 229.424 794.132 238.068Z" fill="#918E85"/>
<path fill-rule="evenodd" clip-rule="evenodd" d="M671.347 168.568C673.822 167.732 676.04 166.617 677.917 165.083C679.794 163.55 681.245 161.737 682.269 159.576C683.378 157.415 683.89 154.975 683.89 152.187C683.89 149.195 683.277 146.404 682.107 143.813C673.046 146.865 663.813 149.927 654.393 152.986C654.489 153.722 654.538 154.477 654.538 155.254C654.538 159.088 653.343 162.922 650.954 166.687L651.466 167.802C653.429 168.429 655.306 168.987 657.268 169.266C659.231 169.545 661.193 169.754 662.985 169.754C665.972 169.754 668.787 169.335 671.347 168.568Z" fill="#918E85"/>
<path fill-rule="evenodd" clip-rule="evenodd" d="M552.402 243.784C554.962 248.524 558.119 252.915 561.959 256.958C565.713 261.001 570.15 264.557 575.099 267.484C580.133 270.482 585.679 272.782 591.909 274.455C598.052 276.128 604.793 276.965 612.131 276.965C625.612 276.965 638.07 274.316 649.333 268.948C660.681 263.65 670.408 255.634 678.515 244.969L678.77 244.55C678.856 244.481 678.856 244.341 678.856 244.062C678.856 243.644 678.6 243.226 678.088 242.738C677.576 242.25 677.064 241.762 676.382 241.274C675.699 240.856 674.931 240.368 674.163 240.019C673.395 239.671 672.712 239.392 672.286 239.183C664.948 246.363 657.354 251.591 649.589 254.797C641.739 258.074 634.06 259.677 626.466 259.677C619.298 259.677 612.557 258.283 606.243 255.495C599.929 252.706 594.383 248.803 589.605 243.714C584.912 238.625 581.072 232.491 578.341 225.311C575.526 218.131 574.161 210.185 574.161 201.401C574.161 196.452 574.502 191.433 575.355 186.344C575.913 182.973 576.653 179.661 577.599 176.39C568.586 178.945 559.409 181.475 550.061 183.974C549.141 186.496 548.332 189.051 547.624 191.642C545.747 198.822 544.723 206.002 544.723 213.112C544.723 218.41 545.406 223.708 546.686 228.866C547.965 234.094 549.928 239.044 552.402 243.784Z" fill="#918E85"/>
<path fill-rule="evenodd" clip-rule="evenodd" d="M465.028 240.089C465.028 246.014 465.967 251.173 467.759 255.704C469.551 260.165 472.196 263.929 475.523 266.857C478.851 269.854 482.776 272.085 487.384 273.549C491.991 275.082 496.94 275.779 502.401 275.849C509.654 275.779 516.566 274.594 523.135 272.224C529.705 269.854 535.764 266.369 541.395 261.838L537.726 257.446C529.876 261.28 522.709 263.232 516.224 263.232C508.972 263.232 503.169 260.792 498.732 255.843C494.21 250.894 491.991 243.574 491.991 233.745C491.991 227.541 492.247 221.337 492.674 215.064C493.152 209.206 493.63 203.53 494.178 197.981C484.601 200.221 474.853 202.42 464.925 204.571C464.225 208.079 463.167 211.539 461.786 214.924C459.909 219.525 457.605 223.847 454.789 228.029C451.888 232.212 448.731 235.976 445.233 239.531C441.649 243.017 437.98 246.014 434.055 248.524C430.215 251.033 426.29 253.055 422.28 254.449C418.269 255.913 414.43 256.61 410.675 256.61C407.348 256.61 404.447 256.122 402.057 255.006C399.668 253.961 397.706 252.567 396.17 250.684C394.634 248.872 393.525 246.711 392.842 244.341C392.16 241.901 391.733 239.392 391.733 236.673C391.733 232.003 392.757 227.89 394.634 224.335C396.019 221.778 397.742 219.499 399.806 217.448C389.446 219.304 378.903 221.102 368.172 222.837C366.867 224.523 365.704 226.277 364.684 228.099C362.039 233.048 360.674 238.486 360.674 244.48C360.674 249.081 361.613 253.403 363.49 257.307C365.367 261.21 367.927 264.556 371.34 267.414C374.668 270.272 378.764 272.573 383.542 274.176C388.235 275.779 393.525 276.616 399.242 276.616C406.239 276.616 412.979 275.222 419.293 272.503C425.693 269.715 431.666 266.16 437.297 261.698C442.929 257.237 448.134 252.148 452.827 246.432C457.52 240.786 461.701 235 465.284 229.145H466.052C465.625 231.097 465.284 232.979 465.199 234.791C465.113 236.534 465.028 238.276 465.028 240.089Z" fill="#918E85"/>
<path fill-rule="evenodd" clip-rule="evenodd" d="M277.401 248.104C277.743 254.936 278.681 260.442 280.046 264.625C281.411 268.877 283.374 271.875 286.019 273.757C288.664 275.639 292.163 276.545 296.685 276.545C300.183 276.545 304.364 276.057 309.143 275.012C313.921 273.966 318.784 272.572 323.819 270.829C328.853 269.156 333.631 267.274 338.154 265.252C342.676 263.231 346.43 261.209 349.417 259.188L347.027 253.89C342.335 255.702 337.642 257.027 333.034 258.072C328.341 259.048 324.075 259.536 320.064 259.536C317.931 259.536 316.054 259.327 314.433 258.979C312.897 258.561 311.446 257.863 310.337 256.748C309.143 255.702 308.204 254.099 307.351 252.078C306.583 250.056 305.985 247.337 305.474 243.991C305.065 240.787 304.735 236.942 304.557 232.336C295.472 233.51 286.26 234.637 276.918 235.714C277.012 240.288 277.168 244.414 277.401 248.104Z" fill="#918E85"/>
<path fill-rule="evenodd" clip-rule="evenodd" d="M131.573 275.846C138.177 266.255 144.584 256.802 150.779 247.473C145.244 247.786 139.67 248.082 134.055 248.361C133.655 248.995 133.254 249.629 132.853 250.263H132.085C131.962 249.666 131.839 249.07 131.716 248.476C121.908 248.953 111.977 249.377 101.921 249.745C104.04 258.492 106.217 267.541 108.45 276.891L111.095 277.24L131.573 275.846Z" fill="#918E85"/>
<path fill-rule="evenodd" clip-rule="evenodd" d="M100.713 248.322C110.358 247.275 120.2 246.116 130.219 244.854C125.762 223.632 121.444 204.445 117.324 187.247C112.545 167.589 108.108 150.232 103.927 134.966C99.7469 119.77 95.7359 106.595 92.0669 95.372C88.4829 84.149 85.0699 74.599 81.9989 66.652C80.2069 62.121 78.5849 58.287 77.0499 55.011C75.5139 51.805 73.7219 49.156 71.7589 47.064C69.7969 44.973 67.4929 43.439 64.7629 42.464C61.9469 41.488 58.4479 41 54.2679 41C48.2944 41 41.0418 41.697 32.3387 43.161C23.7207 44.555 12.8842 46.646 0 49.295L1.365 58.357C5.6316 57.799 9.3859 57.381 12.7134 57.102C16.0412 56.754 19.113 56.615 21.8433 56.615C26.1951 56.615 29.8643 57.033 32.9358 57.73C36.0076 58.496 38.6528 59.682 40.8712 61.355C43.0897 62.958 45.1375 65.049 46.844 67.628C48.6359 70.277 50.3423 73.344 51.9637 76.969C58.5339 91.05 66.3839 114.96 75.5139 148.768C82.6919 175.599 91.1049 208.795 100.713 248.322Z" fill="white"/>
<path fill-rule="evenodd" clip-rule="evenodd" d="M176.37 182.775C169.885 194.207 162.888 206.057 155.55 218.116C150.171 226.906 144.747 235.732 139.213 244.594C145.155 243.817 151.157 243.005 157.213 242.16C159.594 238.519 161.941 234.896 164.253 231.291C174.578 215.328 184.049 200.062 192.752 185.493C201.37 170.994 209.22 157.331 216.131 144.505C223.128 131.748 229.016 120.107 233.879 109.721C238.658 99.2652 242.412 90.2032 244.972 82.4652C247.532 74.6582 248.812 68.5932 248.812 64.1322C248.812 59.1822 247.788 55.0702 245.825 51.7242C243.777 48.3782 241.132 45.7292 237.89 43.7082C234.562 41.7562 230.893 40.3612 226.797 39.5252C222.702 38.6192 218.435 38.2002 214.254 38.2002C212.463 38.2002 210.756 38.2702 209.135 38.4102C207.428 38.5492 205.807 38.7582 204.186 38.9672L203.247 40.7802C214.766 48.9352 220.569 60.2282 220.569 74.5882C220.569 80.2342 219.545 86.8572 217.326 94.5242C215.193 102.192 212.121 110.627 208.196 119.898C204.271 129.169 199.664 139.068 194.203 149.664C188.827 160.259 182.854 171.273 176.37 182.775Z" fill="white"/>
<path fill-rule="evenodd" clip-rule="evenodd" d="M283.71 129.866C283.113 140.949 282.43 151.615 281.833 162.001C281.321 172.318 280.809 181.868 280.297 190.581C279.87 199.295 279.529 206.963 279.273 213.515C279.144 216.82 279.036 219.734 278.962 222.268C288.007 220.608 297.103 218.905 306.24 217.161C306.277 207.183 306.532 196.79 307.004 185.981C307.516 174.27 308.198 162.35 309.137 150.221C309.99 138.022 311.1 125.683 312.38 113.206C313.574 100.658 314.939 88.1808 316.39 75.7728C317.926 63.2948 319.462 51.0258 321.083 38.8968C322.704 26.7678 324.325 14.8478 326.032 3.27579C320.486 1.11479 315.281 0 310.246 0C308.113 0 305.895 0.209194 303.847 0.557594C301.714 0.905794 299.751 1.3938 298.045 2.1608C296.338 2.8578 294.973 3.7638 293.864 5.0188C292.755 6.2038 292.243 7.5978 292.157 9.2018C291.56 16.3808 290.877 24.6068 290.28 33.9478C289.597 43.2888 288.829 53.1868 288.147 63.7128C287.379 74.2388 286.611 85.1138 285.843 96.4058C285.075 107.629 284.393 118.782 283.71 129.866Z" fill="white"/>
<path fill-rule="evenodd" clip-rule="evenodd" d="M312.38 262.032C311.185 260.986 310.246 259.383 309.393 257.362C308.625 255.34 308.028 252.622 307.516 249.276C307.107 246.071 306.777 242.226 306.6 237.62C297.515 238.794 288.302 239.921 278.96 240.998C279.054 245.572 279.211 249.698 279.444 253.388C279.785 260.22 280.723 265.727 282.089 269.909C283.454 274.162 285.417 277.159 288.062 279.041C290.707 280.923 294.205 281.829 298.727 281.829C302.226 281.829 306.407 281.341 311.185 280.296C315.963 279.25 320.827 277.856 325.861 276.113C330.895 274.44 335.673 272.558 340.196 270.537C344.718 268.515 348.473 266.494 351.459 264.472L349.07 259.174C344.377 260.986 339.684 262.311 335.076 263.357C330.383 264.333 326.117 264.821 322.107 264.821C319.974 264.821 318.096 264.611 316.475 264.263C314.939 263.845 313.489 263.148 312.38 262.032Z" fill="white"/>
<path fill-rule="evenodd" clip-rule="evenodd" d="M465.028 245.929C465.028 251.854 465.967 257.012 467.759 261.543C469.551 266.005 472.196 269.769 475.523 272.697C478.851 275.694 482.776 277.925 487.384 279.388C491.991 280.922 496.94 281.619 502.401 281.689C509.654 281.619 516.566 280.434 523.135 278.064C529.705 275.694 535.764 272.209 541.395 267.678L537.726 263.286C529.876 267.12 522.709 269.072 516.224 269.072C508.972 269.072 503.169 266.632 498.732 261.683C494.21 256.733 491.991 249.414 491.991 239.585C491.991 233.381 492.247 227.177 492.674 220.904C493.152 215.046 493.63 209.37 494.178 203.821C484.601 206.061 474.853 208.26 464.925 210.411C464.225 213.919 463.167 217.379 461.786 220.764C459.909 225.365 457.605 229.687 454.789 233.869C451.888 238.052 448.731 241.816 445.233 245.371C441.649 248.856 437.98 251.854 434.055 254.363C430.215 256.873 426.29 258.895 422.28 260.289C418.269 261.752 414.43 262.449 410.675 262.449C407.348 262.449 404.447 261.962 402.057 260.846C399.668 259.801 397.706 258.406 396.17 256.524C394.634 254.712 393.525 252.551 392.842 250.181C392.16 247.741 391.733 245.232 391.733 242.513C391.733 237.843 392.757 233.73 394.634 230.175C396.019 227.618 397.742 225.338 399.806 223.287C389.446 225.143 378.903 226.942 368.172 228.676C366.867 230.363 365.704 232.117 364.684 233.939C362.039 238.888 360.674 244.325 360.674 250.32C360.674 254.921 361.613 259.243 363.49 263.147C365.367 267.05 367.927 270.396 371.34 273.254C374.668 276.112 378.764 278.413 383.542 280.016C388.235 281.619 393.525 282.456 399.242 282.456C406.239 282.456 412.979 281.061 419.293 278.343C425.693 275.555 431.666 271.999 437.297 267.538C442.929 263.077 448.134 257.988 452.827 252.272C457.52 246.626 461.701 240.84 465.284 234.985H466.052C465.625 236.936 465.284 238.819 465.199 240.631C465.113 242.374 465.028 244.116 465.028 245.929Z" fill="white"/>
<path fill-rule="evenodd" clip-rule="evenodd" d="M468.143 183.377C477.584 181.261 487 179.129 496.38 176.984C496.467 174.901 496.514 172.902 496.514 170.993C496.514 164.44 495.575 158.584 493.783 153.426C491.991 148.198 489.176 143.806 485.336 140.182C481.411 136.557 476.377 133.769 470.233 131.886C464.004 129.935 456.496 129.029 447.792 129.029C443.014 129.029 437.894 129.447 432.348 130.283C426.802 131.12 421.256 132.374 415.795 133.978C410.249 135.581 404.959 137.533 399.754 139.833C394.634 142.133 390.026 144.782 386.102 147.71C382.262 150.638 379.105 153.844 376.716 157.4C374.326 160.955 373.132 164.719 373.132 168.692C373.132 171.202 373.644 173.363 374.668 175.384C375.777 177.336 377.142 179.009 378.934 180.333C380.726 181.728 382.859 182.773 385.334 183.47C387.808 184.167 390.453 184.516 393.269 184.516C398.133 184.516 402.911 183.61 407.604 181.658L408.116 180.543C405.3 177.406 403.167 174.199 401.716 170.923C400.265 167.646 399.498 164.3 399.498 161.094C399.498 158.236 400.095 155.657 401.204 153.217C402.313 150.847 404.191 148.756 406.665 146.943C409.225 145.201 412.553 143.806 416.648 142.761C420.744 141.785 425.693 141.227 431.666 141.227C436.017 141.227 440.454 141.855 444.891 143.109C449.328 144.295 453.253 146.176 456.752 148.686C460.25 151.195 463.066 154.472 465.284 158.375C467.417 162.349 468.527 167.019 468.527 172.387C468.527 176.292 468.414 179.968 468.143 183.377Z" fill="white"/>
<path fill-rule="evenodd" clip-rule="evenodd" d="M544.723 218.952C544.723 224.25 545.406 229.548 546.686 234.706C547.965 239.934 549.928 244.883 552.402 249.624C554.962 254.364 558.119 258.754 561.959 262.797C565.713 266.84 570.15 270.395 575.099 273.323C580.133 276.321 585.679 278.621 591.909 280.294C598.052 281.967 604.793 282.805 612.131 282.805C625.612 282.805 638.07 280.155 649.333 274.788C660.681 269.49 670.408 261.474 678.515 250.809L678.77 250.389C678.856 250.319 678.856 250.18 678.856 249.901C678.856 249.483 678.6 249.065 678.088 248.577C677.576 248.089 677.064 247.601 676.382 247.113C675.699 246.695 674.931 246.207 674.163 245.858C673.395 245.51 672.712 245.231 672.286 245.022C664.948 252.202 657.354 257.431 649.589 260.637C641.739 263.913 634.06 265.517 626.466 265.517C619.298 265.517 612.557 264.122 606.243 261.333C599.929 258.545 594.383 254.641 589.605 249.553C584.912 244.464 581.072 238.331 578.341 231.151C575.526 223.971 574.161 216.024 574.161 207.241C574.161 202.292 574.502 197.273 575.355 192.184C575.913 188.813 576.653 185.5 577.599 182.229C568.586 184.784 559.409 187.315 550.061 189.814C549.141 192.336 548.332 194.891 547.624 197.482C545.747 204.662 544.723 211.842 544.723 218.952Z" fill="white"/>
<path fill-rule="evenodd" clip-rule="evenodd" d="M627.49 141.437C631.834 141.437 635.627 141.952 638.945 142.919C648.514 140.542 657.965 138.177 667.28 135.832C663.624 134.049 659.433 132.641 654.709 131.538C648.821 130.214 642.422 129.517 635.595 129.517C626.466 129.517 617.848 130.702 609.742 133.142C601.636 135.582 594.298 138.858 587.557 143.11C580.816 147.362 574.843 152.381 569.553 158.167C568.898 158.874 568.255 159.589 567.624 160.311C576.507 158.187 585.327 156.062 594.072 153.939C594.805 153.261 595.562 152.603 596.345 151.963C600.27 148.686 604.793 146.107 609.998 144.295C615.202 142.413 621.005 141.437 627.49 141.437Z" fill="white"/>
<path fill-rule="evenodd" clip-rule="evenodd" d="M654.538 161.094C654.538 164.928 653.343 168.762 650.954 172.526L651.466 173.642C653.429 174.269 655.306 174.827 657.268 175.106C659.231 175.384 661.193 175.594 662.985 175.594C665.972 175.594 668.787 175.175 671.347 174.408C673.822 173.572 676.04 172.457 677.917 170.923C679.794 169.39 681.245 167.577 682.269 165.416C683.378 163.255 683.89 160.815 683.89 158.027C683.89 155.035 683.277 152.244 682.107 149.653C673.046 152.705 663.813 155.767 654.393 158.826C654.489 159.562 654.538 160.317 654.538 161.094Z" fill="white"/>
<path fill-rule="evenodd" clip-rule="evenodd" d="M725.785 78.2818C725.017 90.4808 724.164 102.749 723.396 115.227C723.25 117.366 723.104 119.5 722.958 121.631C732.376 119.199 741.598 116.803 750.602 114.45C751.028 110.423 751.484 106.314 751.98 102.122C753.004 93.4088 754.114 84.0678 755.308 74.0998C756.503 64.1308 757.868 53.3268 759.319 41.6848C760.854 30.0438 762.561 17.2878 764.524 3.27579C758.977 1.11479 753.772 0 748.738 0C746.434 0 744.131 0.209194 741.997 0.557594C739.864 0.905794 737.902 1.3938 736.195 2.1608C734.489 2.8578 733.038 3.7638 732.014 5.0188C730.905 6.2038 730.308 7.5978 730.223 9.2018C729.54 19.8668 728.857 30.9498 728.089 42.5918C727.407 54.2328 726.553 66.1528 725.785 78.2818Z" fill="white"/>
<path fill-rule="evenodd" clip-rule="evenodd" d="M751.98 200.759C747.885 208.705 744.386 216.652 741.4 224.808L740.632 224.669C741.486 215.049 742.253 206.126 742.936 197.692C743.619 189.327 744.301 181.24 744.984 173.433C745.666 165.556 746.349 157.888 747.032 150.29C747.714 142.692 748.482 134.955 749.336 127.008C749.359 126.761 749.383 126.514 749.407 126.267C740.435 129.449 731.301 132.677 721.987 135.937C721.62 141.413 721.262 146.869 720.922 152.312C720.154 164.51 719.386 176.57 718.533 188.351C717.765 200.201 716.997 211.563 716.314 222.438C715.631 233.312 714.949 243.629 714.266 253.319C713.669 263.008 713.157 271.861 712.645 279.947L714.608 280.017L739.864 277.368C741.997 264.75 744.898 252.9 748.482 241.816C752.066 230.733 756.076 220.556 760.598 211.285C765.121 202.014 769.984 193.788 775.275 186.469C780.479 179.219 785.855 173.015 791.401 167.996C796.948 162.977 802.579 159.143 808.211 156.494C813.757 153.845 819.218 152.521 824.508 152.521C826.726 152.521 828.86 152.8 830.822 153.427C832.785 153.985 834.491 154.891 835.942 156.006C837.392 157.121 838.501 158.516 839.44 160.119C840.293 161.722 840.72 163.465 840.72 165.347C840.72 169.878 839.099 174.339 835.856 178.731C832.614 183.053 828.006 187.235 822.034 191.209C816.061 195.112 808.979 198.877 800.702 202.292C792.511 205.778 783.381 208.915 773.398 211.633L772.886 212.818C780.821 224.878 787.903 235.264 794.132 243.908C800.275 252.621 805.907 259.801 811.026 265.448C816.146 271.094 820.924 275.207 825.446 277.925C829.884 280.644 834.32 281.968 838.843 281.968C842.683 281.968 847.119 281.411 852.154 280.365C857.188 279.32 862.308 277.925 867.427 276.252C872.547 274.51 877.41 272.697 881.932 270.606C886.54 268.585 890.38 266.563 893.366 264.611L890.977 259.313C886.199 261.056 881.506 262.52 876.813 263.565C872.205 264.681 867.683 265.239 863.331 265.239C861.198 265.239 858.98 265.029 856.847 264.681C854.713 264.263 852.41 263.496 849.935 262.241C847.461 261.056 844.73 259.244 841.829 256.873C838.928 254.434 835.686 251.227 832.017 247.184C828.433 243.141 824.337 238.122 819.9 232.197C815.463 226.202 810.429 219.092 804.883 210.657C814.269 206.963 822.802 202.85 830.566 198.458C838.246 194.067 844.815 189.466 850.362 184.517C855.823 179.637 860.089 174.549 863.075 169.251C866.062 163.953 867.598 158.446 867.598 152.8C867.598 149.175 866.915 145.899 865.379 142.971C863.929 140.043 861.881 137.534 859.321 135.512C856.676 133.421 853.604 131.818 850.021 130.702C846.437 129.587 842.512 129.029 838.246 129.029C831.505 129.029 824.849 130.214 818.194 132.724C811.624 135.233 805.31 138.649 799.081 142.971C792.937 147.363 787.05 152.521 781.333 158.585C775.701 164.58 770.411 171.133 765.462 178.243C760.599 185.353 756.076 192.882 751.98 200.759Z" fill="white"/>
<path fill-rule="evenodd" clip-rule="evenodd" d="M131.573 280.296C138.177 270.705 144.584 261.252 150.779 251.923C145.244 252.236 139.67 252.533 134.055 252.812C133.655 253.445 133.254 254.079 132.853 254.713H132.085C131.962 254.116 131.839 253.52 131.716 252.926C121.908 253.404 111.977 253.827 101.921 254.195C104.04 262.942 106.217 271.991 108.45 281.341L111.095 281.69L131.573 280.296Z" fill="white"/>
<path d="M153.287 351.289C153.415 351.163 153.574 351.1 153.765 351.1C153.956 351.1 154.147 351.163 154.338 351.289C154.529 351.352 154.593 351.415 154.529 351.478C153.892 355.569 153.574 360.039 153.574 364.885C153.574 365.389 153.478 365.766 153.287 366.018C153.096 366.207 152.714 366.302 152.141 366.302H108.574C108.319 366.302 108.191 366.113 108.191 365.735C108.191 365.357 108.287 365.169 108.478 365.169C110.389 365.169 111.758 365.011 112.586 364.696C113.478 364.382 114.051 363.784 114.306 362.903C114.625 362.021 114.784 360.605 114.784 358.654V314.938C114.784 313.05 114.625 311.665 114.306 310.784C113.988 309.903 113.383 309.305 112.491 308.99C111.599 308.613 110.261 308.424 108.478 308.424C108.287 308.424 108.16 308.235 108.096 307.857C108.096 307.479 108.16 307.291 108.287 307.291H149.465C149.975 307.291 150.23 307.574 150.23 308.14L150.421 320.604C150.421 320.792 150.23 320.887 149.848 320.887C149.529 320.887 149.338 320.824 149.274 320.698C148.192 317.173 146.217 314.403 143.351 312.389C140.548 310.312 137.204 309.273 133.319 309.273H131.504C129.529 309.273 128.096 309.431 127.204 309.746C126.376 309.997 125.835 310.501 125.58 311.256C125.325 312.012 125.166 313.27 125.102 315.033V334.294H137.045C140.293 334.294 142.682 333.728 144.211 332.595C145.739 331.461 146.504 329.636 146.504 327.118C146.504 326.867 146.727 326.741 147.172 326.741C147.618 326.741 147.841 326.898 147.841 327.213L147.746 332.406C147.682 333.161 147.65 334.231 147.65 335.616C147.65 337.63 147.682 339.141 147.746 340.148L147.841 345.246C147.841 345.561 147.65 345.719 147.268 345.719C147.077 345.719 146.886 345.687 146.695 345.624C146.567 345.498 146.504 345.372 146.504 345.246C146.504 342.54 145.644 340.494 143.924 339.109C142.268 337.662 139.911 336.938 136.854 336.938H125.102V358.276C125.102 360.794 125.485 362.43 126.249 363.186C127.077 363.941 128.765 364.319 131.313 364.319H133.988C138.128 364.319 141.918 363.154 145.357 360.825C148.797 358.433 151.44 355.255 153.287 351.289ZM242.549 307.291C242.74 307.291 242.835 307.479 242.835 307.857C242.835 308.235 242.74 308.424 242.549 308.424C239.937 308.424 237.803 309.305 236.147 311.067C234.555 312.83 233.727 315.222 233.664 318.243L233.568 366.962C233.632 367.151 233.472 367.309 233.09 367.435C232.772 367.623 232.389 367.718 231.943 367.718C231.306 367.718 230.892 367.529 230.702 367.151L190.669 317.488L190.574 355.349C190.51 358.371 191.275 360.762 192.867 362.525C194.459 364.287 196.593 365.169 199.268 365.169C199.523 365.169 199.65 365.357 199.65 365.735C199.65 366.113 199.523 366.302 199.268 366.302C197.485 366.302 196.115 366.27 195.16 366.207L189.141 366.113L183.408 366.207C182.325 366.27 180.797 366.302 178.822 366.302C178.567 366.302 178.44 366.113 178.44 365.735C178.44 365.357 178.567 365.169 178.822 365.169C181.497 365.169 183.599 364.287 185.128 362.525C186.72 360.762 187.548 358.371 187.612 355.349L187.708 313.9C185.86 311.886 184.204 310.469 182.739 309.651C181.338 308.833 179.873 308.424 178.345 308.424C178.217 308.424 178.153 308.235 178.153 307.857C178.153 307.479 178.217 307.291 178.345 307.291L183.504 307.385C184.523 307.448 185.892 307.479 187.612 307.479C189.332 307.479 190.765 307.448 191.912 307.385C193.122 307.322 193.918 307.291 194.3 307.291C194.81 307.291 195.192 307.417 195.447 307.668C195.765 307.92 196.115 308.392 196.497 309.085C197.262 310.218 198.026 311.256 198.791 312.2L230.606 351.478L230.797 318.243C230.86 315.222 230.097 312.83 228.504 311.067C226.976 309.305 224.841 308.424 222.103 308.424C221.848 308.424 221.72 308.235 221.72 307.857C221.72 307.479 221.848 307.291 222.103 307.291L225.829 307.385C228.376 307.511 230.511 307.574 232.23 307.574C233.568 307.574 235.447 307.511 237.867 307.385L242.549 307.291ZM276.847 366.302C276.655 366.302 276.56 366.113 276.56 365.735C276.56 365.357 276.624 365.169 276.751 365.169C279.426 365.169 281.369 365.011 282.579 364.696C283.853 364.382 284.713 363.784 285.159 362.903C285.605 361.958 285.828 360.542 285.828 358.654V314.938C285.892 312.735 285.605 311.288 284.968 310.595C284.331 309.84 283.12 309.462 281.337 309.462H280.095C277.93 309.462 275.795 310.155 273.694 311.539C271.592 312.861 269.808 314.655 268.344 316.921C266.878 319.124 265.986 321.548 265.668 324.191C265.668 324.317 265.509 324.38 265.191 324.38C265 324.38 264.809 324.349 264.618 324.286C264.49 324.16 264.458 324.065 264.522 324.003C264.841 321.611 265.319 315.348 265.955 305.213C265.955 305.025 266.114 304.93 266.432 304.93C266.624 304.93 266.783 304.962 266.91 305.025C267.101 305.088 267.197 305.182 267.197 305.308C267.197 306.63 268.631 307.291 271.497 307.291C276.655 307.479 283.12 307.574 290.891 307.574C294.395 307.574 298.312 307.511 302.643 307.385L309.331 307.291C311.433 307.291 312.962 307.133 313.917 306.819C314.872 306.504 315.478 305.874 315.732 304.93C315.86 304.741 316.083 304.678 316.401 304.741C316.784 304.741 316.943 304.867 316.879 305.119C316.688 307.889 316.497 311.382 316.306 315.599C316.115 319.754 316.051 322.555 316.115 324.003C316.115 324.191 315.923 324.286 315.541 324.286C315.032 324.286 314.777 324.16 314.777 323.908C314.777 321.327 314.171 318.936 312.962 316.732C311.815 314.529 310.191 312.767 308.089 311.445C306.051 310.123 303.821 309.462 301.401 309.462H300.159C298.885 309.462 297.961 309.62 297.388 309.934C296.878 310.249 296.56 310.784 296.432 311.539C296.306 312.232 296.21 313.428 296.147 315.127L296.242 358.654C296.242 360.605 296.432 362.021 296.815 362.903C297.261 363.784 298.089 364.382 299.299 364.696C300.509 365.011 302.484 365.169 305.223 365.169C305.414 365.169 305.509 365.357 305.509 365.735C305.509 366.113 305.414 366.302 305.223 366.302C302.866 366.302 301.019 366.27 299.682 366.207L290.987 366.113L282.77 366.207C281.369 366.27 279.394 366.302 276.847 366.302ZM387.073 351.289C387.201 351.163 387.36 351.1 387.551 351.1C387.742 351.1 387.934 351.163 388.125 351.289C388.316 351.352 388.38 351.415 388.316 351.478C387.679 355.569 387.36 360.039 387.36 364.885C387.36 365.389 387.265 365.766 387.073 366.018C386.882 366.207 386.5 366.302 385.928 366.302H342.36C342.105 366.302 341.978 366.113 341.978 365.735C341.978 365.357 342.073 365.169 342.264 365.169C344.176 365.169 345.545 365.011 346.373 364.696C347.265 364.382 347.838 363.784 348.093 362.903C348.411 362.021 348.57 360.605 348.57 358.654V314.938C348.57 313.05 348.411 311.665 348.093 310.784C347.774 309.903 347.169 309.305 346.277 308.99C345.385 308.613 344.048 308.424 342.264 308.424C342.073 308.424 341.946 308.235 341.882 307.857C341.882 307.479 341.946 307.291 342.073 307.291H383.252C383.761 307.291 384.016 307.574 384.016 308.14L384.207 320.604C384.207 320.792 384.016 320.887 383.634 320.887C383.315 320.887 383.124 320.824 383.06 320.698C381.978 317.173 380.003 314.403 377.137 312.389C374.335 310.312 370.991 309.273 367.105 309.273H365.291C363.315 309.273 361.883 309.431 360.991 309.746C360.163 309.997 359.621 310.501 359.366 311.256C359.111 312.012 358.952 313.27 358.888 315.033V334.294H370.832C374.08 334.294 376.468 333.728 377.997 332.595C379.525 331.461 380.29 329.636 380.29 327.118C380.29 326.867 380.513 326.741 380.959 326.741C381.405 326.741 381.628 326.898 381.628 327.213L381.532 332.406C381.469 333.161 381.437 334.231 381.437 335.616C381.437 337.63 381.469 339.141 381.532 340.148L381.628 345.246C381.628 345.561 381.437 345.719 381.055 345.719C380.863 345.719 380.672 345.687 380.481 345.624C380.354 345.498 380.29 345.372 380.29 345.246C380.29 342.54 379.43 340.494 377.711 339.109C376.054 337.662 373.698 336.938 370.64 336.938H358.888V358.276C358.888 360.794 359.271 362.43 360.035 363.186C360.864 363.941 362.551 364.319 365.099 364.319H367.774C371.915 364.319 375.705 363.154 379.144 360.825C382.584 358.433 385.227 355.255 387.073 351.289ZM477.004 365.169C477.195 365.169 477.29 365.357 477.29 365.735C477.354 366.113 477.259 366.302 477.004 366.302H461.335C459.806 366.302 457.131 363.784 453.309 358.748C449.551 353.65 444.997 346.002 439.647 335.805C437.864 336.245 435.889 336.466 433.724 336.466C433.405 336.466 432.991 336.403 432.481 336.277V358.654C432.418 360.479 432.545 361.864 432.864 362.808C433.246 363.689 433.883 364.319 434.774 364.696C435.73 365.011 437.163 365.169 439.074 365.169C439.328 365.169 439.456 365.357 439.456 365.735C439.52 366.113 439.424 366.302 439.169 366.302C437.004 366.302 435.347 366.27 434.202 366.207L427.131 366.113L419.966 366.207C418.691 366.27 416.972 366.302 414.806 366.302C414.551 366.302 414.392 366.113 414.328 365.735C414.328 365.357 414.456 365.169 414.71 365.169C416.813 365.169 418.373 365.011 419.392 364.696C420.412 364.319 421.08 363.689 421.398 362.808C421.781 361.864 422.004 360.479 422.067 358.654V314.938C422.067 313.05 421.876 311.665 421.494 310.784C421.175 309.903 420.539 309.305 419.583 308.99C418.628 308.613 417.163 308.424 415.188 308.424C414.933 308.424 414.806 308.235 414.806 307.857C414.806 307.479 414.933 307.291 415.188 307.291L420.252 307.385C423.055 307.511 425.347 307.574 427.131 307.574C429.297 307.574 431.653 307.448 434.202 307.196C436.239 307.07 437.577 307.007 438.213 307.007C444.647 307.007 449.456 308.046 452.64 310.123C455.889 312.2 457.514 315.096 457.514 318.81C457.514 321.516 456.59 324.128 454.743 326.646C452.959 329.164 450.571 331.273 447.577 332.972C452.545 341.092 456.749 347.481 460.188 352.139C463.692 356.734 466.749 360.07 469.36 362.147C472.036 364.161 474.584 365.169 477.004 365.169ZM432.481 333.633C433.246 333.822 434.17 333.916 435.252 333.916C439.456 333.916 442.418 333.004 444.138 331.178C445.921 329.353 446.813 326.3 446.813 322.02C446.813 317.551 445.921 314.278 444.138 312.2C442.418 310.06 440.284 308.99 437.737 308.99C436.016 308.99 434.838 309.116 434.202 309.368C433.564 309.557 433.118 310.06 432.864 310.879C432.672 311.634 432.545 313.05 432.481 315.127V333.633ZM498.169 366.302C497.977 366.302 497.882 366.113 497.882 365.735C497.882 365.357 497.977 365.169 498.169 365.169C500.144 365.169 501.576 365.011 502.468 364.696C503.36 364.382 503.964 363.784 504.283 362.903C504.602 361.958 504.761 360.542 504.761 358.654V314.938C504.761 313.05 504.57 311.665 504.187 310.784C503.869 309.903 503.233 309.305 502.277 308.99C501.385 308.613 500.016 308.424 498.169 308.424C497.977 308.424 497.882 308.235 497.882 307.857C497.882 307.479 497.977 307.291 498.169 307.291L502.85 307.385C505.525 307.511 507.754 307.574 509.538 307.574C512.022 307.574 514.793 307.448 517.85 307.196C520.016 307.07 521.449 307.007 522.15 307.007C528.901 307.007 534.379 308.361 538.582 311.067C542.85 313.774 544.985 317.677 544.985 322.775C544.985 326.929 543.838 330.423 541.545 333.255C539.251 336.088 536.385 338.197 532.946 339.581C529.506 340.903 526.067 341.564 522.627 341.564C520.717 341.564 519.22 341.407 518.137 341.092C518.009 341.092 517.945 340.872 517.945 340.431C517.945 340.116 517.977 339.833 518.041 339.581C518.168 339.267 518.296 339.141 518.423 339.204C519.252 339.456 520.271 339.581 521.481 339.581C525.047 339.581 527.977 338.354 530.271 335.899C532.627 333.381 533.806 329.636 533.806 324.663C533.806 321.453 533.169 318.684 531.895 316.355C530.621 313.963 528.965 312.137 526.927 310.879C524.952 309.62 522.85 308.99 520.621 308.99C518.391 308.99 516.895 309.399 516.131 310.218C515.43 310.973 515.048 312.609 514.984 315.127L515.079 358.654C515.079 360.542 515.239 361.927 515.557 362.808C515.94 363.689 516.545 364.319 517.373 364.696C518.264 365.011 519.634 365.169 521.481 365.169C521.672 365.169 521.767 365.357 521.767 365.735C521.831 366.113 521.735 366.302 521.481 366.302C519.443 366.302 517.85 366.27 516.704 366.207L509.825 366.113L503.042 366.207C501.831 366.27 500.207 366.302 498.169 366.302ZM633.764 365.169C633.955 365.169 634.05 365.357 634.05 365.735C634.114 366.113 634.018 366.302 633.764 366.302H618.094C616.566 366.302 613.891 363.784 610.069 358.748C606.311 353.65 601.757 346.002 596.407 335.805C594.623 336.245 592.649 336.466 590.483 336.466C590.164 336.466 589.751 336.403 589.241 336.277V358.654C589.178 360.479 589.305 361.864 589.624 362.808C590.006 363.689 590.642 364.319 591.534 364.696C592.49 365.011 593.922 365.169 595.834 365.169C596.088 365.169 596.216 365.357 596.216 365.735C596.28 366.113 596.184 366.302 595.929 366.302C593.763 366.302 592.107 366.27 590.96 366.207L583.89 366.113L576.725 366.207C575.451 366.27 573.731 366.302 571.566 366.302C571.311 366.302 571.152 366.113 571.088 365.735C571.088 365.357 571.215 365.169 571.47 365.169C573.572 365.169 575.133 365.011 576.151 364.696C577.171 364.319 577.84 363.689 578.158 362.808C578.54 361.864 578.763 360.479 578.827 358.654V314.938C578.827 313.05 578.636 311.665 578.254 310.784C577.935 309.903 577.298 309.305 576.342 308.99C575.388 308.613 573.922 308.424 571.948 308.424C571.693 308.424 571.566 308.235 571.566 307.857C571.566 307.479 571.693 307.291 571.948 307.291L577.011 307.385C579.814 307.511 582.107 307.574 583.89 307.574C586.057 307.574 588.413 307.448 590.96 307.196C592.999 307.07 594.336 307.007 594.973 307.007C601.406 307.007 606.216 308.046 609.4 310.123C612.649 312.2 614.273 315.096 614.273 318.81C614.273 321.516 613.35 324.128 611.502 326.646C609.719 329.164 607.33 331.273 604.336 332.972C609.305 341.092 613.509 347.481 616.948 352.139C620.452 356.734 623.509 360.07 626.12 362.147C628.795 364.161 631.344 365.169 633.764 365.169ZM589.241 333.633C590.006 333.822 590.929 333.916 592.012 333.916C596.216 333.916 599.177 333.004 600.897 331.178C602.681 329.353 603.573 326.3 603.573 322.02C603.573 317.551 602.681 314.278 600.897 312.2C599.177 310.06 597.043 308.99 594.496 308.99C592.776 308.99 591.598 309.116 590.96 309.368C590.323 309.557 589.878 310.06 589.624 310.879C589.432 311.634 589.305 313.05 589.241 315.127V333.633ZM655.883 366.302C655.757 366.302 655.693 366.113 655.693 365.735C655.693 365.357 655.757 365.169 655.883 365.169C657.858 365.169 659.259 365.011 660.087 364.696C660.979 364.382 661.585 363.784 661.903 362.903C662.222 362.021 662.381 360.605 662.381 358.654V314.938C662.381 313.113 662.19 311.76 661.808 310.879C661.489 309.934 660.884 309.305 659.992 308.99C659.101 308.613 657.731 308.424 655.883 308.424C655.757 308.424 655.661 308.235 655.598 307.857C655.598 307.479 655.693 307.291 655.883 307.291L660.661 307.385C663.463 307.511 665.725 307.574 667.444 307.574C669.356 307.574 671.776 307.511 674.705 307.385L679.387 307.291C679.515 307.291 679.578 307.479 679.578 307.857C679.578 308.235 679.515 308.424 679.387 308.424C677.476 308.424 676.075 308.613 675.183 308.99C674.291 309.368 673.686 309.997 673.367 310.879C673.113 311.76 672.954 313.176 672.891 315.127V358.654C672.891 360.542 673.049 361.927 673.367 362.808C673.75 363.689 674.387 364.319 675.279 364.696C676.171 365.011 677.54 365.169 679.387 365.169C679.515 365.169 679.578 365.357 679.578 365.735C679.578 366.113 679.515 366.302 679.387 366.302C677.412 366.302 675.82 366.27 674.61 366.207L667.635 366.113L660.852 366.207C659.641 366.27 657.986 366.302 655.883 366.302ZM718.979 316.26C718.979 318.526 719.584 320.572 720.795 322.397C722.005 324.223 723.47 325.828 725.189 327.213C726.973 328.535 729.361 330.14 732.355 332.028C735.603 334.105 738.152 335.899 739.998 337.41C741.91 338.92 743.534 340.746 744.872 342.886C746.208 344.963 746.877 347.355 746.877 350.062C746.877 355.412 744.967 359.661 741.145 362.808C737.387 365.892 732.514 367.435 726.527 367.435C723.661 367.435 720.604 367.057 717.355 366.302C714.107 365.483 711.941 364.602 710.859 363.658C710.54 363.469 710.317 363.28 710.19 363.091C710.126 362.84 710.062 362.43 709.999 361.864L709.616 346.852C709.553 346.6 709.68 346.442 709.999 346.379C710.381 346.317 710.636 346.411 710.763 346.663C712.546 350.314 714.203 353.398 715.731 355.916C717.324 358.371 719.234 360.511 721.464 362.336C723.693 364.161 726.209 365.074 729.011 365.074C734.617 365.074 737.419 362.053 737.419 356.01C737.419 353.115 736.75 350.565 735.412 348.362C734.139 346.159 732.546 344.334 730.636 342.886C728.788 341.375 726.304 339.613 723.183 337.599C720.317 335.773 718.024 334.2 716.304 332.878C714.585 331.493 713.12 329.856 711.909 327.968C710.763 326.08 710.19 323.94 710.19 321.548C710.19 318.149 711.144 315.316 713.056 313.05C715.03 310.721 717.547 309.022 720.604 307.952C723.661 306.819 726.909 306.252 730.349 306.252C732.578 306.252 734.903 306.472 737.324 306.913C739.807 307.291 741.719 307.763 743.056 308.329C743.629 308.644 744.011 308.959 744.203 309.273C744.394 309.525 744.489 309.84 744.489 310.218V324.097C744.489 324.286 744.33 324.443 744.011 324.569C743.693 324.632 743.47 324.569 743.342 324.38C743.151 324.003 742.45 322.397 741.241 319.565C740.094 316.669 738.311 314.089 735.89 311.823C733.534 309.494 730.827 308.329 727.77 308.329C725.221 308.329 723.12 309.085 721.464 310.595C719.807 312.043 718.979 313.931 718.979 316.26ZM819.191 351.289C819.319 351.163 819.478 351.1 819.669 351.1C819.86 351.1 820.052 351.163 820.243 351.289C820.434 351.352 820.498 351.415 820.434 351.478C819.797 355.569 819.478 360.039 819.478 364.885C819.478 365.389 819.383 365.766 819.191 366.018C819 366.207 818.618 366.302 818.046 366.302H774.478C774.223 366.302 774.096 366.113 774.096 365.735C774.096 365.357 774.191 365.169 774.382 365.169C776.294 365.169 777.663 365.011 778.491 364.696C779.383 364.382 779.956 363.784 780.211 362.903C780.529 362.021 780.688 360.605 780.688 358.654V314.938C780.688 313.05 780.529 311.665 780.211 310.784C779.892 309.903 779.287 309.305 778.395 308.99C777.503 308.613 776.166 308.424 774.382 308.424C774.191 308.424 774.064 308.235 774 307.857C774 307.479 774.064 307.291 774.191 307.291H815.37C815.879 307.291 816.134 307.574 816.134 308.14L816.325 320.604C816.325 320.792 816.134 320.887 815.752 320.887C815.433 320.887 815.242 320.824 815.178 320.698C814.096 317.173 812.121 314.403 809.255 312.389C806.453 310.312 803.109 309.273 799.223 309.273H797.409C795.433 309.273 794.001 309.431 793.109 309.746C792.281 309.997 791.739 310.501 791.484 311.256C791.229 312.012 791.07 313.27 791.006 315.033V334.294H802.95C806.198 334.294 808.586 333.728 810.115 332.595C811.643 331.461 812.408 329.636 812.408 327.118C812.408 326.867 812.631 326.741 813.077 326.741C813.523 326.741 813.746 326.898 813.746 327.213L813.65 332.406C813.587 333.161 813.555 334.231 813.555 335.616C813.555 337.63 813.587 339.141 813.65 340.148L813.746 345.246C813.746 345.561 813.555 345.719 813.173 345.719C812.981 345.719 812.79 345.687 812.599 345.624C812.472 345.498 812.408 345.372 812.408 345.246C812.408 342.54 811.548 340.494 809.829 339.109C808.172 337.662 805.816 336.938 802.758 336.938H791.006V358.276C791.006 360.794 791.389 362.43 792.153 363.186C792.981 363.941 794.669 364.319 797.217 364.319H799.892C804.033 364.319 807.823 363.154 811.262 360.825C814.702 358.433 817.345 355.255 819.191 351.289ZM858.198 316.26C858.198 318.526 858.803 320.572 860.013 322.397C861.224 324.223 862.689 325.828 864.408 327.213C866.192 328.535 868.58 330.14 871.574 332.028C874.822 334.105 877.37 335.899 879.217 337.41C881.128 338.92 882.753 340.746 884.089 342.886C885.427 344.963 886.096 347.355 886.096 350.062C886.096 355.412 884.185 359.661 880.364 362.808C876.606 365.892 871.733 367.435 865.746 367.435C862.88 367.435 859.822 367.057 856.573 366.302C853.325 365.483 851.16 364.602 850.077 363.658C849.758 363.469 849.535 363.28 849.409 363.091C849.345 362.84 849.281 362.43 849.218 361.864L848.835 346.852C848.772 346.6 848.899 346.442 849.218 346.379C849.599 346.317 849.854 346.411 849.981 346.663C851.765 350.314 853.421 353.398 854.95 355.916C856.542 358.371 858.453 360.511 860.682 362.336C862.912 364.161 865.428 365.074 868.23 365.074C873.835 365.074 876.638 362.053 876.638 356.01C876.638 353.115 875.969 350.565 874.631 348.362C873.358 346.159 871.765 344.334 869.855 342.886C868.007 341.375 865.523 339.613 862.402 337.599C859.536 335.773 857.242 334.2 855.523 332.878C853.803 331.493 852.339 329.856 851.128 327.968C849.981 326.08 849.409 323.94 849.409 321.548C849.409 318.149 850.363 315.316 852.275 313.05C854.249 310.721 856.765 309.022 859.822 307.952C862.88 306.819 866.128 306.252 869.568 306.252C871.797 306.252 874.121 306.472 876.542 306.913C879.026 307.291 880.937 307.763 882.275 308.329C882.848 308.644 883.23 308.959 883.422 309.273C883.613 309.525 883.708 309.84 883.708 310.218V324.097C883.708 324.286 883.549 324.443 883.23 324.569C882.912 324.632 882.689 324.569 882.561 324.38C882.37 324.003 881.669 322.397 880.46 319.565C879.313 316.669 877.529 314.089 875.109 311.823C872.753 309.494 870.045 308.329 866.988 308.329C864.44 308.329 862.338 309.085 860.682 310.595C859.026 312.043 858.198 313.931 858.198 316.26Z" fill="#918E85"/>
<path d="M151.983 351.522C152.111 351.395 152.27 351.331 152.461 351.331C152.652 351.331 152.843 351.395 153.035 351.522C153.226 351.586 153.289 351.65 153.226 351.714C152.589 355.855 152.27 360.379 152.27 365.285C152.27 365.794 152.174 366.176 151.983 366.431C151.792 366.622 151.41 366.718 150.836 366.718H107.257C107.002 366.718 106.874 366.527 106.874 366.145C106.874 365.762 106.97 365.571 107.161 365.571C109.072 365.571 110.442 365.412 111.271 365.093C112.163 364.775 112.736 364.17 112.991 363.278C113.309 362.386 113.469 360.952 113.469 358.977V314.728C113.469 312.817 113.309 311.415 112.991 310.523C112.672 309.631 112.067 309.026 111.175 308.707C110.283 308.325 108.945 308.134 107.161 308.134C106.97 308.134 106.843 307.943 106.779 307.56C106.779 307.178 106.843 306.987 106.97 306.987H148.16C148.67 306.987 148.925 307.274 148.925 307.847L149.116 320.462C149.116 320.654 148.925 320.749 148.543 320.749C148.224 320.749 148.033 320.685 147.969 320.558C146.886 316.99 144.911 314.187 142.044 312.148C139.241 310.045 135.896 308.994 132.009 308.994H130.193C128.218 308.994 126.785 309.153 125.893 309.472C125.064 309.727 124.523 310.236 124.268 311.001C124.013 311.766 123.854 313.04 123.79 314.824V334.32H135.736C138.986 334.32 141.375 333.747 142.904 332.6C144.433 331.453 145.198 329.605 145.198 327.057C145.198 326.802 145.421 326.674 145.867 326.674C146.313 326.674 146.536 326.834 146.536 327.152L146.44 332.409C146.376 333.173 146.345 334.256 146.345 335.658C146.345 337.697 146.376 339.226 146.44 340.245L146.536 345.406C146.536 345.725 146.345 345.884 145.962 345.884C145.771 345.884 145.58 345.852 145.389 345.788C145.262 345.661 145.198 345.533 145.198 345.406C145.198 342.666 144.338 340.596 142.617 339.194C140.961 337.729 138.603 336.996 135.545 336.996H123.79V358.595C123.79 361.143 124.172 362.8 124.937 363.564C125.765 364.329 127.454 364.711 130.002 364.711H132.678C136.82 364.711 140.61 363.532 144.051 361.175C147.491 358.754 150.136 355.536 151.983 351.522ZM241.271 306.987C241.462 306.987 241.557 307.178 241.557 307.56C241.557 307.943 241.462 308.134 241.271 308.134C238.658 308.134 236.524 309.026 234.867 310.81C233.275 312.594 232.446 315.015 232.383 318.073L232.287 367.387C232.351 367.578 232.191 367.737 231.809 367.865C231.491 368.056 231.108 368.152 230.662 368.152C230.025 368.152 229.611 367.96 229.42 367.578L189.376 317.309L189.281 355.632C189.217 358.69 189.982 361.111 191.574 362.895C193.167 364.679 195.302 365.571 197.978 365.571C198.232 365.571 198.36 365.762 198.36 366.145C198.36 366.527 198.232 366.718 197.978 366.718C196.194 366.718 194.824 366.686 193.868 366.622L187.847 366.527L182.113 366.622C181.03 366.686 179.501 366.718 177.526 366.718C177.271 366.718 177.143 366.527 177.143 366.145C177.143 365.762 177.271 365.571 177.526 365.571C180.202 365.571 182.304 364.679 183.833 362.895C185.426 361.111 186.254 358.69 186.318 355.632L186.414 313.677C184.566 311.638 182.909 310.205 181.444 309.376C180.042 308.548 178.577 308.134 177.048 308.134C176.92 308.134 176.857 307.943 176.857 307.56C176.857 307.178 176.92 306.987 177.048 306.987L182.208 307.083C183.228 307.146 184.598 307.178 186.318 307.178C188.038 307.178 189.472 307.146 190.619 307.083C191.829 307.019 192.626 306.987 193.008 306.987C193.518 306.987 193.9 307.115 194.155 307.369C194.473 307.624 194.824 308.102 195.206 308.803C195.97 309.95 196.735 311.001 197.5 311.957L229.324 351.714L229.516 318.073C229.579 315.015 228.815 312.594 227.222 310.81C225.693 309.026 223.558 308.134 220.819 308.134C220.564 308.134 220.436 307.943 220.436 307.56C220.436 307.178 220.564 306.987 220.819 306.987L224.546 307.083C227.094 307.21 229.229 307.274 230.949 307.274C232.287 307.274 234.167 307.21 236.588 307.083L241.271 306.987ZM275.579 366.718C275.387 366.718 275.292 366.527 275.292 366.145C275.292 365.762 275.356 365.571 275.483 365.571C278.159 365.571 280.102 365.412 281.313 365.093C282.587 364.775 283.447 364.17 283.893 363.278C284.339 362.322 284.562 360.888 284.562 358.977V314.728C284.626 312.498 284.339 311.033 283.702 310.332C283.065 309.567 281.854 309.185 280.07 309.185H278.828C276.662 309.185 274.527 309.886 272.425 311.288C270.322 312.626 268.538 314.442 267.073 316.735C265.607 318.965 264.715 321.418 264.397 324.094C264.397 324.221 264.238 324.285 263.919 324.285C263.728 324.285 263.537 324.253 263.346 324.19C263.218 324.062 263.186 323.967 263.25 323.903C263.569 321.482 264.047 315.142 264.684 304.885C264.684 304.693 264.843 304.598 265.161 304.598C265.353 304.598 265.512 304.63 265.639 304.693C265.83 304.757 265.926 304.853 265.926 304.98C265.926 306.318 267.36 306.987 270.227 306.987C275.387 307.178 281.854 307.274 289.627 307.274C293.132 307.274 297.05 307.21 301.382 307.083L308.072 306.987C310.175 306.987 311.704 306.828 312.66 306.509C313.615 306.191 314.221 305.554 314.475 304.598C314.603 304.407 314.826 304.343 315.144 304.407C315.527 304.407 315.686 304.534 315.622 304.789C315.431 307.592 315.24 311.128 315.049 315.397C314.858 319.602 314.794 322.438 314.858 323.903C314.858 324.094 314.666 324.19 314.284 324.19C313.775 324.19 313.52 324.062 313.52 323.807C313.52 321.195 312.914 318.774 311.704 316.544C310.557 314.314 308.932 312.53 306.83 311.192C304.791 309.854 302.561 309.185 300.14 309.185H298.898C297.623 309.185 296.699 309.344 296.126 309.663C295.616 309.982 295.298 310.523 295.17 311.288C295.043 311.989 294.947 313.199 294.884 314.919L294.979 358.977C294.979 360.952 295.17 362.386 295.553 363.278C295.999 364.17 296.827 364.775 298.037 365.093C299.248 365.412 301.223 365.571 303.963 365.571C304.154 365.571 304.249 365.762 304.249 366.145C304.249 366.527 304.154 366.718 303.963 366.718C301.605 366.718 299.758 366.686 298.42 366.622L289.723 366.527L281.504 366.622C280.102 366.686 278.127 366.718 275.579 366.718ZM385.837 351.522C385.965 351.395 386.124 351.331 386.315 351.331C386.506 351.331 386.698 351.395 386.889 351.522C387.08 351.586 387.144 351.65 387.08 351.714C386.443 355.855 386.124 360.379 386.124 365.285C386.124 365.794 386.029 366.176 385.837 366.431C385.646 366.622 385.264 366.718 384.691 366.718H341.111C340.856 366.718 340.729 366.527 340.729 366.145C340.729 365.762 340.824 365.571 341.015 365.571C342.927 365.571 344.297 365.412 345.125 365.093C346.017 364.775 346.59 364.17 346.845 363.278C347.164 362.386 347.323 360.952 347.323 358.977V314.728C347.323 312.817 347.164 311.415 346.845 310.523C346.526 309.631 345.921 309.026 345.029 308.707C344.137 308.325 342.799 308.134 341.015 308.134C340.824 308.134 340.697 307.943 340.633 307.56C340.633 307.178 340.697 306.987 340.824 306.987H382.015C382.524 306.987 382.779 307.274 382.779 307.847L382.97 320.462C382.97 320.654 382.779 320.749 382.397 320.749C382.078 320.749 381.887 320.685 381.823 320.558C380.74 316.99 378.765 314.187 375.898 312.148C373.095 310.045 369.75 308.994 365.863 308.994H364.048C362.072 308.994 360.639 309.153 359.747 309.472C358.919 309.727 358.377 310.236 358.122 311.001C357.867 311.766 357.708 313.04 357.644 314.824V334.32H369.591C372.84 334.32 375.229 333.747 376.758 332.6C378.287 331.453 379.052 329.605 379.052 327.057C379.052 326.802 379.275 326.674 379.721 326.674C380.167 326.674 380.39 326.834 380.39 327.152L380.294 332.409C380.231 333.173 380.199 334.256 380.199 335.658C380.199 337.697 380.231 339.226 380.294 340.245L380.39 345.406C380.39 345.725 380.199 345.884 379.817 345.884C379.625 345.884 379.434 345.852 379.243 345.788C379.116 345.661 379.052 345.533 379.052 345.406C379.052 342.666 378.192 340.596 376.472 339.194C374.815 337.729 372.458 336.996 369.399 336.996H357.644V358.595C357.644 361.143 358.027 362.8 358.791 363.564C359.62 364.329 361.308 364.711 363.856 364.711H366.532C370.674 364.711 374.465 363.532 377.905 361.175C381.346 358.754 383.99 355.536 385.837 351.522ZM475.794 365.571C475.985 365.571 476.08 365.762 476.08 366.145C476.144 366.527 476.049 366.718 475.794 366.718H460.12C458.591 366.718 455.915 364.17 452.092 359.072C448.333 353.912 443.778 346.171 438.426 335.849C436.642 336.295 434.667 336.518 432.501 336.518C432.182 336.518 431.768 336.454 431.258 336.327V358.977C431.195 360.825 431.322 362.226 431.641 363.182C432.023 364.074 432.66 364.711 433.552 365.093C434.508 365.412 435.941 365.571 437.853 365.571C438.107 365.571 438.235 365.762 438.235 366.145C438.299 366.527 438.203 366.718 437.948 366.718C435.782 366.718 434.125 366.686 432.979 366.622L425.906 366.527L418.739 366.622C417.464 366.686 415.744 366.718 413.578 366.718C413.323 366.718 413.164 366.527 413.1 366.145C413.1 365.762 413.228 365.571 413.482 365.571C415.585 365.571 417.146 365.412 418.165 365.093C419.185 364.711 419.854 364.074 420.172 363.182C420.555 362.226 420.778 360.825 420.841 358.977V314.728C420.841 312.817 420.65 311.415 420.268 310.523C419.949 309.631 419.312 309.026 418.356 308.707C417.401 308.325 415.935 308.134 413.96 308.134C413.705 308.134 413.578 307.943 413.578 307.56C413.578 307.178 413.705 306.987 413.96 306.987L419.025 307.083C421.829 307.21 424.122 307.274 425.906 307.274C428.073 307.274 430.43 307.146 432.979 306.892C435.017 306.764 436.355 306.7 436.992 306.7C443.427 306.7 448.238 307.752 451.423 309.854C454.673 311.957 456.298 314.888 456.298 318.647C456.298 321.386 455.374 324.03 453.526 326.579C451.742 329.127 449.353 331.262 446.358 332.982C451.328 341.201 455.533 347.668 458.973 352.383C462.478 357.034 465.536 360.41 468.148 362.513C470.824 364.552 473.373 365.571 475.794 365.571ZM431.258 333.651C432.023 333.842 432.947 333.938 434.03 333.938C438.235 333.938 441.198 333.014 442.918 331.166C444.702 329.319 445.594 326.228 445.594 321.896C445.594 317.372 444.702 314.059 442.918 311.957C441.198 309.79 439.063 308.707 436.515 308.707C434.794 308.707 433.616 308.835 432.979 309.09C432.341 309.281 431.895 309.79 431.641 310.619C431.449 311.383 431.322 312.817 431.258 314.919V333.651ZM496.965 366.718C496.773 366.718 496.678 366.527 496.678 366.145C496.678 365.762 496.773 365.571 496.965 365.571C498.94 365.571 500.373 365.412 501.265 365.093C502.157 364.775 502.762 364.17 503.081 363.278C503.4 362.322 503.559 360.888 503.559 358.977V314.728C503.559 312.817 503.368 311.415 502.985 310.523C502.667 309.631 502.03 309.026 501.074 308.707C500.182 308.325 498.812 308.134 496.965 308.134C496.773 308.134 496.678 307.943 496.678 307.56C496.678 307.178 496.773 306.987 496.965 306.987L501.647 307.083C504.323 307.21 506.553 307.274 508.337 307.274C510.822 307.274 513.594 307.146 516.652 306.892C518.818 306.764 520.252 306.7 520.953 306.7C527.706 306.7 533.185 308.07 537.39 310.81C541.659 313.55 543.794 317.5 543.794 322.661C543.794 326.866 542.647 330.402 540.353 333.269C538.059 336.136 535.192 338.27 531.752 339.672C528.311 341.01 524.871 341.679 521.43 341.679C519.519 341.679 518.022 341.52 516.939 341.201C516.811 341.201 516.747 340.978 516.747 340.532C516.747 340.213 516.779 339.927 516.843 339.672C516.97 339.353 517.098 339.226 517.225 339.29C518.054 339.544 519.073 339.672 520.284 339.672C523.851 339.672 526.782 338.429 529.076 335.945C531.433 333.396 532.612 329.605 532.612 324.572C532.612 321.323 531.975 318.519 530.701 316.162C529.426 313.741 527.77 311.893 525.731 310.619C523.756 309.344 521.653 308.707 519.423 308.707C517.193 308.707 515.696 309.121 514.932 309.95C514.231 310.714 513.849 312.371 513.785 314.919L513.88 358.977C513.88 360.888 514.04 362.29 514.358 363.182C514.741 364.074 515.346 364.711 516.174 365.093C517.066 365.412 518.436 365.571 520.284 365.571C520.475 365.571 520.57 365.762 520.57 366.145C520.634 366.527 520.538 366.718 520.284 366.718C518.245 366.718 516.652 366.686 515.505 366.622L508.624 366.527L501.839 366.622C500.628 366.686 499.003 366.718 496.965 366.718ZM632.599 365.571C632.79 365.571 632.885 365.762 632.885 366.145C632.949 366.527 632.853 366.718 632.599 366.718H616.925C615.396 366.718 612.72 364.17 608.897 359.072C605.138 353.912 600.583 346.171 595.231 335.849C593.447 336.295 591.472 336.518 589.306 336.518C588.987 336.518 588.573 336.454 588.063 336.327V358.977C588 360.825 588.127 362.226 588.446 363.182C588.828 364.074 589.465 364.711 590.357 365.093C591.313 365.412 592.746 365.571 594.658 365.571C594.912 365.571 595.04 365.762 595.04 366.145C595.104 366.527 595.008 366.718 594.753 366.718C592.587 366.718 590.93 366.686 589.783 366.622L582.711 366.527L575.544 366.622C574.269 366.686 572.549 366.718 570.383 366.718C570.128 366.718 569.969 366.527 569.905 366.145C569.905 365.762 570.032 365.571 570.287 365.571C572.39 365.571 573.951 365.412 574.97 365.093C575.99 364.711 576.659 364.074 576.977 363.182C577.359 362.226 577.582 360.825 577.646 358.977V314.728C577.646 312.817 577.455 311.415 577.073 310.523C576.754 309.631 576.117 309.026 575.161 308.707C574.206 308.325 572.74 308.134 570.765 308.134C570.51 308.134 570.383 307.943 570.383 307.56C570.383 307.178 570.51 306.987 570.765 306.987L575.83 307.083C578.634 307.21 580.927 307.274 582.711 307.274C584.878 307.274 587.235 307.146 589.783 306.892C591.822 306.764 593.16 306.7 593.797 306.7C600.232 306.7 605.043 307.752 608.228 309.854C611.478 311.957 613.102 314.888 613.102 318.647C613.102 321.386 612.179 324.03 610.331 326.579C608.547 329.127 606.158 331.262 603.163 332.982C608.133 341.201 612.338 347.668 615.778 352.383C619.283 357.034 622.341 360.41 624.953 362.513C627.629 364.552 630.178 365.571 632.599 365.571ZM588.063 333.651C588.828 333.842 589.752 333.938 590.835 333.938C595.04 333.938 598.002 333.014 599.723 331.166C601.507 329.319 602.399 326.228 602.399 321.896C602.399 317.372 601.507 314.059 599.723 311.957C598.002 309.79 595.868 308.707 593.32 308.707C591.599 308.707 590.421 308.835 589.783 309.09C589.146 309.281 588.7 309.79 588.446 310.619C588.254 311.383 588.127 312.817 588.063 314.919V333.651ZM654.725 366.718C654.598 366.718 654.534 366.527 654.534 366.145C654.534 365.762 654.598 365.571 654.725 365.571C656.7 365.571 658.102 365.412 658.93 365.093C659.822 364.775 660.428 364.17 660.746 363.278C661.065 362.386 661.224 360.952 661.224 358.977V314.728C661.224 312.881 661.033 311.511 660.651 310.619C660.332 309.663 659.727 309.026 658.835 308.707C657.943 308.325 656.573 308.134 654.725 308.134C654.598 308.134 654.502 307.943 654.439 307.56C654.439 307.178 654.534 306.987 654.725 306.987L659.504 307.083C662.307 307.21 664.569 307.274 666.289 307.274C668.201 307.274 670.622 307.21 673.552 307.083L678.235 306.987C678.363 306.987 678.426 307.178 678.426 307.56C678.426 307.943 678.363 308.134 678.235 308.134C676.324 308.134 674.922 308.325 674.03 308.707C673.138 309.09 672.533 309.727 672.214 310.619C671.96 311.511 671.8 312.944 671.737 314.919V358.977C671.737 360.888 671.896 362.29 672.214 363.182C672.597 364.074 673.234 364.711 674.126 365.093C675.018 365.412 676.388 365.571 678.235 365.571C678.363 365.571 678.426 365.762 678.426 366.145C678.426 366.527 678.363 366.718 678.235 366.718C676.26 366.718 674.667 366.686 673.457 366.622L666.48 366.527L659.695 366.622C658.484 366.686 656.828 366.718 654.725 366.718ZM717.839 316.066C717.839 318.36 718.444 320.431 719.655 322.278C720.866 324.126 722.331 325.751 724.051 327.152C725.835 328.49 728.224 330.115 731.219 332.026C734.468 334.129 737.017 335.945 738.864 337.474C740.776 339.003 742.401 340.851 743.739 343.017C745.076 345.119 745.745 347.54 745.745 350.28C745.745 355.696 743.834 359.996 740.011 363.182C736.252 366.304 731.378 367.865 725.389 367.865C722.522 367.865 719.464 367.483 716.214 366.718C712.965 365.89 710.799 364.998 709.716 364.042C709.397 363.851 709.174 363.66 709.047 363.469C708.983 363.214 708.919 362.8 708.856 362.226L708.473 347.031C708.41 346.776 708.537 346.617 708.856 346.553C709.238 346.489 709.493 346.585 709.62 346.84C711.404 350.535 713.061 353.657 714.59 356.205C716.183 358.69 718.094 360.856 720.324 362.704C722.554 364.552 725.071 365.476 727.874 365.476C733.481 365.476 736.284 362.417 736.284 356.301C736.284 353.37 735.615 350.79 734.277 348.56C733.003 346.33 731.41 344.482 729.499 343.017C727.651 341.488 725.166 339.704 722.044 337.665C719.177 335.817 716.883 334.224 715.163 332.886C713.443 331.485 711.978 329.828 710.767 327.917C709.62 326.005 709.047 323.839 709.047 321.418C709.047 317.978 710.002 315.111 711.914 312.817C713.889 310.459 716.406 308.739 719.464 307.656C722.522 306.509 725.771 305.936 729.212 305.936C731.442 305.936 733.767 306.159 736.189 306.605C738.673 306.987 740.585 307.465 741.923 308.038C742.496 308.357 742.878 308.675 743.07 308.994C743.261 309.249 743.356 309.567 743.356 309.95V323.998C743.356 324.19 743.197 324.349 742.878 324.476C742.56 324.54 742.337 324.476 742.209 324.285C742.018 323.903 741.317 322.278 740.107 319.411C738.96 316.48 737.176 313.868 734.755 311.574C732.398 309.217 729.69 308.038 726.632 308.038C724.083 308.038 721.981 308.803 720.324 310.332C718.667 311.797 717.839 313.709 717.839 316.066ZM818.08 351.522C818.208 351.395 818.367 351.331 818.558 351.331C818.749 351.331 818.941 351.395 819.132 351.522C819.323 351.586 819.387 351.65 819.323 351.714C818.686 355.855 818.367 360.379 818.367 365.285C818.367 365.794 818.272 366.176 818.08 366.431C817.889 366.622 817.507 366.718 816.934 366.718H773.354C773.099 366.718 772.972 366.527 772.972 366.145C772.972 365.762 773.067 365.571 773.258 365.571C775.17 365.571 776.54 365.412 777.368 365.093C778.26 364.775 778.833 364.17 779.088 363.278C779.407 362.386 779.566 360.952 779.566 358.977V314.728C779.566 312.817 779.407 311.415 779.088 310.523C778.769 309.631 778.164 309.026 777.272 308.707C776.38 308.325 775.042 308.134 773.258 308.134C773.067 308.134 772.94 307.943 772.876 307.56C772.876 307.178 772.94 306.987 773.067 306.987H814.258C814.767 306.987 815.022 307.274 815.022 307.847L815.213 320.462C815.213 320.654 815.022 320.749 814.64 320.749C814.321 320.749 814.13 320.685 814.066 320.558C812.983 316.99 811.008 314.187 808.141 312.148C805.338 310.045 801.993 308.994 798.106 308.994H796.291C794.315 308.994 792.882 309.153 791.99 309.472C791.162 309.727 790.62 310.236 790.365 311.001C790.11 311.766 789.951 313.04 789.887 314.824V334.32H801.834C805.083 334.32 807.472 333.747 809.001 332.6C810.53 331.453 811.295 329.605 811.295 327.057C811.295 326.802 811.518 326.674 811.964 326.674C812.41 326.674 812.633 326.834 812.633 327.152L812.537 332.409C812.474 333.173 812.442 334.256 812.442 335.658C812.442 337.697 812.474 339.226 812.537 340.245L812.633 345.406C812.633 345.725 812.442 345.884 812.06 345.884C811.868 345.884 811.677 345.852 811.486 345.788C811.359 345.661 811.295 345.533 811.295 345.406C811.295 342.666 810.435 340.596 808.715 339.194C807.058 337.729 804.701 336.996 801.642 336.996H789.887V358.595C789.887 361.143 790.27 362.8 791.034 363.564C791.862 364.329 793.551 364.711 796.099 364.711H798.775C802.917 364.711 806.708 363.532 810.148 361.175C813.589 358.754 816.233 355.536 818.08 351.522ZM857.098 316.066C857.098 318.36 857.703 320.431 858.914 322.278C860.125 324.126 861.59 325.751 863.31 327.152C865.094 328.49 867.483 330.115 870.478 332.026C873.727 334.129 876.276 335.945 878.123 337.474C880.035 339.003 881.66 340.851 882.997 343.017C884.335 345.119 885.004 347.54 885.004 350.28C885.004 355.696 883.093 359.996 879.27 363.182C875.511 366.304 870.637 367.865 864.648 367.865C861.781 367.865 858.723 367.483 855.473 366.718C852.224 365.89 850.058 364.998 848.975 364.042C848.656 363.851 848.433 363.66 848.306 363.469C848.242 363.214 848.178 362.8 848.115 362.226L847.732 347.031C847.669 346.776 847.796 346.617 848.115 346.553C848.497 346.489 848.752 346.585 848.879 346.84C850.663 350.535 852.32 353.657 853.849 356.205C855.442 358.69 857.353 360.856 859.583 362.704C861.813 364.552 864.33 365.476 867.133 365.476C872.74 365.476 875.543 362.417 875.543 356.301C875.543 353.37 874.874 350.79 873.536 348.56C872.262 346.33 870.669 344.482 868.758 343.017C866.91 341.488 864.425 339.704 861.303 337.665C858.436 335.817 856.142 334.224 854.422 332.886C852.702 331.485 851.237 329.828 850.026 327.917C848.879 326.005 848.306 323.839 848.306 321.418C848.306 317.978 849.261 315.111 851.173 312.817C853.148 310.459 855.665 308.739 858.723 307.656C861.781 306.509 865.03 305.936 868.471 305.936C870.701 305.936 873.026 306.159 875.447 306.605C877.932 306.987 879.844 307.465 881.182 308.038C881.755 308.357 882.137 308.675 882.329 308.994C882.52 309.249 882.615 309.567 882.615 309.95V323.998C882.615 324.19 882.456 324.349 882.137 324.476C881.819 324.54 881.596 324.476 881.468 324.285C881.277 323.903 880.576 322.278 879.366 319.411C878.219 316.48 876.435 313.868 874.014 311.574C871.657 309.217 868.949 308.038 865.891 308.038C863.342 308.038 861.239 308.803 859.583 310.332C857.926 311.797 857.098 313.709 857.098 316.066Z" fill="white"/>
</svg>
